<?xml version="1.0" standalone="no"?>
<!DOCTYPE svg PUBLIC "-//W3C//DTD SVG 20010904//EN"
 "http://www.w3.org/TR/2001/REC-SVG-20010904/DTD/svg10.dtd">
<svg version="1.0" xmlns="http://www.w3.org/2000/svg"
 width="16.000000pt" height="16.000000pt" viewBox="0 0 16.000000 16.000000"
 preserveAspectRatio="xMidYMid meet">
<metadata>
Created by potrace 1.11, written by Peter Selinger 2001-2013
</metadata>
<g transform="translate(0.000000,16.000000) scale(0.012500,-0.012500)"
fill="#000000" stroke="none">
<path d="M480 1259 c-219 -59 -385 -221 -456 -444 -26 -81 -26 -264 0 -350 51
-170 176 -321 327 -393 109 -52 174 -69 281 -70 179 -1 329 60 456 186 126
125 188 271 190 445 3 300 -204 562 -499 633 -13 4 -69 8 -124 9 -77 3 -117
-1 -175 -16z"/>
</g>
</svg>
