<svg xmlns="http://www.w3.org/2000/svg" xmlns:xlink="http://www.w3.org/1999/xlink" viewBox="0 0 30 30"><defs><style>.cls-1{fill:url(#linear-gradient);}</style><linearGradient id="linear-gradient" y1="-16" x2="30" y2="-16" gradientTransform="translate(0 31)" gradientUnits="userSpaceOnUse"><stop offset="0.75" stop-color="#fff"/><stop offset="0.89" stop-color="#eff4e6"/><stop offset="1" stop-color="#e5edd7"/></linearGradient></defs><title>act-snoeien-wit</title><g id="Layer_2" data-name="Layer 2"><g id="Layer_25" data-name="Layer 25"><path class="cls-1" d="M15,0A15,15,0,0,0,5.53,26.63a28.38,28.38,0,0,1,3.74-6.18A22.73,22.73,0,0,0,14.8,24l-3.46,5.53A14.77,14.77,0,0,0,21.8,28.36c-1.19-1.81-2.81-3.86-4.43-4.67-3.16-1.58-7.62-3.26-9.47-7.89C4.74,7.89,9.47,4.74,9.47,4.74s0,6.32,3.16,9.47,6.32,3.16,9.47,4.74a17.85,17.85,0,0,1,5.13,4.71A15,15,0,0,0,15,0Zm4.17,16.78a17.68,17.68,0,0,1-4.76-2.2,16.53,16.53,0,0,1,1.38-5.11c1.58-3.16,7.89-4.74,7.89-4.74Zm-2.59,3A1.58,1.58,0,0,0,15,18.16v.79h0v-.79a1.58,1.58,0,0,0,0,3.16v-.79h0v.79A1.58,1.58,0,0,0,16.58,19.74Z"/></g></g></svg>