<svg xmlns="http://www.w3.org/2000/svg" viewBox="0 0 30 30.84"><defs><style>.cls-1{fill:#35470e;}.cls-2{fill:#6ca21d;}</style></defs><title>act-aanplanting</title><g id="Layer_2" data-name="Layer 2"><g id="Layer_25" data-name="Layer 25"><path class="cls-1" d="M30,15A15,15,0,1,0,15,30c.27,0,.53,0,.79,0h.29c.21,0,.41-.05.61-.07a.77.77,0,0,1,0-.11,22.81,22.81,0,0,0,1.14-9.24c-.84.81-3.28,2.46-7-1.11C6.14,14.94,6,10.36,6,10.36a15.29,15.29,0,0,1,8.31,2.56A8.51,8.51,0,0,1,16,14.51a.77.77,0,0,1,.06-.1l.08,0a6.33,6.33,0,0,1,.53-1.56,11.42,11.42,0,0,1,4.59-4.59s1.53,3.06,0,7.65a5,5,0,0,1-2,2.92c.53,2.42.6,5.95-.78,10.78A15,15,0,0,0,30,15Z"/><path class="cls-2" d="M17.26,30.8a.83.83,0,0,0,1-.55c.07-.24.13-.46.19-.69a15,15,0,0,1-1.8.31A.82.82,0,0,0,17.26,30.8Z"/></g></g></svg>