<svg xmlns="http://www.w3.org/2000/svg" xmlns:xlink="http://www.w3.org/1999/xlink" viewBox="0 0 30 30"><defs><style>.cls-1{fill:url(#linear-gradient);}</style><linearGradient id="linear-gradient" y1="15" x2="30" y2="15" gradientUnits="userSpaceOnUse"><stop offset="0.75" stop-color="#fff"/><stop offset="0.89" stop-color="#eff4e6"/><stop offset="1" stop-color="#e5edd7"/></linearGradient></defs><title>act-hakselen-wit</title><g id="Layer_2" data-name="Layer 2"><g id="Layer_25" data-name="Layer 25"><path class="cls-1" d="M28.77,10a93.53,93.53,0,0,0-9.35,6.24l-.1.08a3.21,3.21,0,0,1,1,2.51c0,.14,0,.27,0,.41l-.79-.07.79.07c-.16,1.48-1,2.85-2.48,2.92h-.18c-1.43-.2-2.07-1.59-2.08-3a3.61,3.61,0,0,1,0-.41c.16-1.48,1-2.85,2.48-2.93h.06L13.08,9.11l.69-.46,9.35-6.23A15,15,0,1,0,30,15a14.91,14.91,0,0,0-.93-5.15ZM2.35,15a3.65,3.65,0,0,1,0-.42c.16-1.48,1-2.85,2.48-2.93H5c1.43.2,2.07,1.59,2.07,3,0,.11,0,.21,0,.32a2.37,2.37,0,0,1,1,.66c0-.05,0-.1,0-.16a3.32,3.32,0,0,1,1.73-2.66,3.84,3.84,0,0,1,2-.6,2.19,2.19,0,0,1,1.93,1,1.9,1.9,0,0,1,.28,1,3.33,3.33,0,0,1-1.73,2.66,3.85,3.85,0,0,1-2,.6,2.31,2.31,0,0,1-1.63-.6,2.47,2.47,0,0,1,0,.35,2.37,2.37,0,0,1-4.63.7A2.84,2.84,0,0,1,2.35,15ZM8.53,25.29l-.41-.67h0l.41.67a3.89,3.89,0,0,1-2,.6h0a2.18,2.18,0,0,1-1.92-1,1.9,1.9,0,0,1-.28-1,3.33,3.33,0,0,1,1.73-2.66,3.88,3.88,0,0,1,2-.6,2.18,2.18,0,0,1,1.93,1,1.92,1.92,0,0,1,.28,1A3.34,3.34,0,0,1,8.53,25.29Zm1.73-4.14c0-1.54.79-3.07,2.37-3.16,1.58.09,2.36,1.62,2.37,3.16s-.79,3.07-2.37,3.16C11,24.22,10.27,22.69,10.26,21.15Zm7.89,5L17.37,26h0l.79.08C18,27.6,17.16,29,15.67,29H15.5c-1.43-.2-2.07-1.59-2.08-3a3.66,3.66,0,0,1,0-.42c.16-1.48,1-2.85,2.48-2.93h.18c1.43.2,2.07,1.59,2.08,3C18.17,25.84,18.17,26,18.16,26.11Z"/></g></g></svg>