<svg xmlns="http://www.w3.org/2000/svg" xmlns:xlink="http://www.w3.org/1999/xlink" viewBox="0 0 30 30.84"><defs><style>.cls-1{fill:url(#linear-gradient);}.cls-2{fill:#6ca21d;}</style><linearGradient id="linear-gradient" y1="15" x2="30" y2="15" gradientUnits="userSpaceOnUse"><stop offset="0.75" stop-color="#fff"/><stop offset="0.89" stop-color="#eff4e6"/><stop offset="1" stop-color="#e5edd7"/></linearGradient></defs><title>act-aanplanting-wit</title><g id="Layer_2" data-name="Layer 2"><g id="Layer_25" data-name="Layer 25"><path class="cls-1" d="M16.08,29.95A14.8,14.8,0,1,0,15,30c.27,0,.53,0,.79,0"/><path class="cls-2" d="M17.5,30.84a.83.83,0,0,1-.8-1.08c3.12-10.13-.59-14.13-.63-14.17a.83.83,0,0,1,1.18-1.17c.18.18,4.48,4.65,1,15.83A.83.83,0,0,1,17.5,30.84Z"/><path class="cls-2" d="M21.28,15.87c-1.53,4.59-4.59,3.06-4.59,3.06a7.39,7.39,0,0,1,0-6.12,11.42,11.42,0,0,1,4.59-4.59S22.81,11.28,21.28,15.87Z"/><path class="cls-2" d="M6,10.36a15.29,15.29,0,0,1,8.31,2.56,9.9,9.9,0,0,1,3.84,7.24s-2.66,3.73-7.35-.75S6,10.36,6,10.36Z"/></g></g></svg>