<svg xmlns="http://www.w3.org/2000/svg" viewBox="0 0 30 30"><defs><style>.cls-1{fill:#fff;}</style></defs><title>act-advies-wit</title><g id="Layer_2" data-name="Layer 2"><g id="Layer_25" data-name="Layer 25"><path class="cls-1" d="M15,0A15,15,0,1,0,30,15,15,15,0,0,0,15,0ZM11.84,27.54a2.07,2.07,0,1,1,2.07-2.07A2.07,2.07,0,0,1,11.84,27.54Zm5.53-2.86a3.16,3.16,0,1,1,3.16-3.16A3.16,3.16,0,0,1,17.37,24.68Zm-3.16-6.32c-4.36,0-7.89-2.83-7.89-6.32s3.53-6.32,7.89-6.32S22.11,8.56,22.11,12,18.57,18.36,14.21,18.36Z"/></g></g></svg>