<svg xmlns="http://www.w3.org/2000/svg" viewBox="0 0 30 30"><defs><style>.cls-1{fill:#fff;}</style></defs><title>act-ontmantelen-wit</title><g id="Layer_2" data-name="Layer 2"><g id="Layer_25" data-name="Layer 25"><path class="cls-1" d="M22.24,27.28l.59-.9.66.44.36.23.6-.47L10.5,17.44a4,4,0,0,1-1.16-5.55h0a4,4,0,0,1,5.55-1.16l14.22,9.32a14.88,14.88,0,0,0,.7-2.79c0,.12,0,.24-.05.35.06-.36.13-.72.16-1.08h0c0-.07,0-.14,0-.21l-.11.17-.67,1-.34.53-.43.66-.66-.43-.17-.11-1.25-.82v.18L25,16.5l-.62-.4,1.72-2.64,3.14,2.06.67.44c0-.31,0-.63,0-.95a15.06,15.06,0,1,0-7.24,12.81Zm1.93-15.12.66.44-1.73,2.64-4-2.6L20.86,10ZM15.26,6.59l.72.32a7.7,7.7,0,0,1,1.12.61l2.45,1.6-1.31,2-.43.66-2.45-1.6a5.39,5.39,0,0,0-.68-.37L14,9.47Zm-6.82.93a8,8,0,0,1,3.69-1.27l.79-.07L13,7l.13,1.58.06.79-.79.06a4.74,4.74,0,0,0-2.21.76l-.66.44L7.78,8ZM4.87,14.21v-.08a7.86,7.86,0,0,1,.93-3.71l.37-.69L9,11.2l-.37.7A4.68,4.68,0,0,0,8,14.12V15L4.87,15ZM8.54,20.8l-.1-.07A7.85,7.85,0,0,1,5.88,18l-.38-.69,2.07-1.15.69-.39.39.69a4.68,4.68,0,0,0,1.55,1.65l.74.51L9.2,21.23Zm5.95,3.89-4-2.6,1.3-2,.43-.66,4,2.59Zm5.28,3.46-4-2.6,1.73-2.64,3.3,2.16.66.43Z"/></g></g></svg>