<svg xmlns="http://www.w3.org/2000/svg" viewBox="0 0 30 30"><defs><style>.cls-1{fill:#35470e;}</style></defs><title>act-klieven</title><g id="Layer_2" data-name="Layer 2"><g id="Layer_25" data-name="Layer 25"><path class="cls-1" d="M18.72,18.54l3.35-3.85,6.83,5.94A15.07,15.07,0,1,0,26.15,25ZM12.82,6.64l1.09.95-3.35,3.85-1.09-.95Zm2.27,18.09.39,1-1.07.08h-.33a10.64,10.64,0,0,1-6.73-2.46A10.5,10.5,0,0,1,4,16.71l-.07-1.07,1.05.25a2.89,2.89,0,0,0,.6.05,5.15,5.15,0,0,0,3.88-2l6.7-7.7.52-.6.6.52,5.78,5,.6.52-.52.6L16.38,20C14.24,22.47,15.06,24.64,15.09,24.73Z"/></g></g></svg>