<?xml version="1.0" encoding="utf-8"?>
<svg version="1.1" id="Layer_1" xmlns="http://www.w3.org/2000/svg" xmlns:xlink="http://www.w3.org/1999/xlink" x="0px" y="0px" 
	 viewBox="0 0 647.9 1057.9" style="enable-background:new 0 0 647.9 1057.9;" preserveAspectRatio="xMaxYMax meet" xml:space="preserve">
<style type="text/css">
	.st0{opacity:0.25;fill:#6CA21D;enable-background:new    ;}
</style>
<title>back-wood</title>
<g id="Layer_2">
	<g id="Layer_25">
		<path class="st0" d="M440.3,458.7c0,0.1,0.1,0.1,0.1,0.2l2.1-2.1c1.9,1.9,1.3,13,0.4,16.6l-2.9-0.7
			C441,468.5,440.9,460,440.3,458.7z M424.7,759c-4.2,47.2-6.4,93-6.4,136.7c0,25,0.7,49.2,2.1,72.8c0.7,11.3,3.1,22.6,5.6,33.6
			c3.2,14.6,6.5,29.6,5.5,44.4c-0.1,0.8,0.6,1.6,1.4,1.6s1.5-0.6,1.6-1.4c1.1-15.2-2.3-30.5-5.5-45.3c-2.4-10.9-4.8-22.1-5.5-33.2
			c-3.8-64.8-2.4-135.1,4.3-209.1c2.8-31.1,10.1-61.5,17.2-90.8c5.1-21.3,10.5-43.4,14-65.7c11.9-73.8,2.4-147-6.8-217.9
			c-2.8-21.9-5.8-44.5-8.1-66.9c-5.5-53.7-9.1-108.3-10.8-162.4c-0.6-17.8-0.2-36.3,0.2-54.1c0.6-31.9,1.3-64.9-3.2-96.5
			c-0.1-0.8-0.9-1.4-1.7-1.3c-0.8,0.1-1.4,0.9-1.3,1.7c4.5,31.3,3.9,64.2,3.2,96c-0.4,17.9-0.7,36.3-0.2,54.2
			c1.8,54.1,5.4,108.8,10.9,162.6c2.3,22.5,5.2,45.1,8.1,67c9.6,73.9,18.6,143.6,6.9,217c-3.6,22.2-8.9,44.2-14,65.4
			C434.9,697.2,427.5,727.6,424.7,759L424.7,759z M374.8,679.4c-0.1,0.8,0.4,1.6,1.2,1.8c0,0,0,0,0,0c7.4,1.3,16.4-3.8,21.6-9.1
			c0.6-0.6,0.5-1.6-0.1-2.1c-0.6-0.5-1.5-0.5-2,0c-4.8,4.9-12.9,9.3-19,8.2C375.7,678,374.9,678.6,374.8,679.4
			C374.8,679.4,374.8,679.4,374.8,679.4z M425.2,648.6c-1,1.6-2,3.3-2.8,5.1c-0.8,1.6-1.6,3.2-2.6,4.7l2.5,1.7
			c1-1.6,1.9-3.3,2.8-5.1c0.8-1.6,1.6-3.2,2.6-4.7L425.2,648.6z M346.7,1054.9c-2.2-6.1,7-23.2,18.9-35.3c7-7.1,13.2-10.6,16.6-9.3
			c8.5,2.9,16.5,17.9,22.4,28.9c2,4,4.3,7.9,6.8,11.7c0.5,0.7,1.4,0.8,2.1,0.3c0.7-0.5,0.8-1.5,0.3-2.1l0,0
			c-2.4-3.6-4.6-7.4-6.5-11.3c-6.4-12.1-14.5-27.1-24.1-30.4c-6.2-2.3-15,5.3-19.7,10c-9.2,9.3-20.1,25.5-20.1,35.2
			c0,1.1,0.2,2.2,0.5,3.2c0.2,0.8,1,1.3,1.8,1.1c0.8-0.2,1.3-1.1,1-1.9C346.8,1055.1,346.7,1055,346.7,1054.9L346.7,1054.9z
			 M454.9,507.7l3-0.3c-0.7-8.3-0.9-17-1.2-26.2c-0.5-17.9-1-36.4-5.3-53.1l-2.9,0.8c4.2,16.4,4.7,34.7,5.2,52.4
			C454,490.6,454.2,499.3,454.9,507.7z M341.3,723.4c-0.3-0.8-1.2-1.1-2-0.8c-0.8,0.3-1.1,1.2-0.8,2c0,0,0,0.1,0.1,0.1
			c0.9,1.8,0.9,4.9,0.9,6.9c0,0.8,0.7,1.5,1.5,1.5s1.5-0.7,1.5-1.5C342.5,729.4,342.5,725.9,341.3,723.4z M335.3,974.9
			c-0.2,0.8,0.3,1.6,1.2,1.8c0.8,0.2,1.6-0.4,1.8-1.2c10.3-49.7,18.8-94.7,18.3-143.1c-0.5-43-5.5-86.3-10.3-128.2
			c-0.9-7.5-1.7-15.1-2.6-22.6c-0.1-0.8-0.8-1.4-1.7-1.3c-0.8,0.1-1.4,0.9-1.3,1.7c0.8,7.5,1.7,15.1,2.6,22.6
			c4.9,41.8,9.9,85.1,10.3,127.8C354,880.6,345.6,925.5,335.3,974.9L335.3,974.9z M452.4,582.1c1.7-11.5,3.2-22.4,5.5-31.9l-2.9-0.7
			c-2.3,9.7-3.9,20.6-5.5,32.2c-3,20.7-6.1,42.2-13.6,57.4l2.7,1.4C446.2,624.7,449.3,603,452.4,582.1z M430.1,240.2
			c0-15.3-1.5-33.8-2.6-47.4c-0.2-2.9-0.5-5.5-0.6-8l-3,0.2c0.2,2.4,0.4,5.1,0.6,8c1.1,13.5,2.6,32,2.6,47.1L430.1,240.2z
			 M435.7,341.9h3c0-13.4-1.7-26.6-3.3-39.4c-1.9-14.7-3.7-28.7-3.1-42.8l-3-0.1c-0.1,1.8-0.1,3.6-0.1,5.4c0,12.7,1.6,25.5,3.2,37.9
			C434,315.6,435.7,328.8,435.7,341.9L435.7,341.9z M406.2,239.3c0.6,18.4,1.1,37.4,9.3,52.5l2.6-1.5c-7.8-14.4-8.4-33.1-9-51.1
			c-0.3-8.4-0.5-17.2-1.6-25.2l-3,0.4C405.7,222.2,406,230.5,406.2,239.3z M413,168.7c0-0.8-0.7-1.5-1.5-1.5s-1.5,0.7-1.5,1.5
			c0.2,2-0.2,4-0.9,5.8c-0.4,0.7-0.2,1.7,0.6,2.1c0.7,0.4,1.6,0.2,2-0.6c0,0,0-0.1,0.1-0.1C412.8,173.6,413.2,171.2,413,168.7z
			 M443.1,563.6c-1.2,6.4-2.2,13.4-3.3,20.8c-2.7,18.7-5.8,39.9-12.6,54.6l2.7,1.3c7-15,10.1-36.5,12.9-55.4
			c1.1-7.4,2.1-14.4,3.2-20.6c5.5-23.3,0.9-57.2-2.1-79.6l-3,0.4C444,507.2,448.5,540.8,443.1,563.6L443.1,563.6z M430.1,371.9
			l-2.9,0.7c2.3,10.3,3.2,20.7,4.1,30.8c1.1,13.2,2.3,26.7,6.6,39.7l2.9-1c-4.2-12.7-5.3-25.5-6.5-39
			C433.4,392.9,432.4,382.4,430.1,371.9z M457.9,528.1c0.2-2.5-0.2-4.9-1.2-7.2l-2.7,1.4c0.8,1.8,1.1,3.8,0.9,5.8L457.9,528.1z
			 M239.1,2.3c16.4,88.2,16.8,176.7,14.7,259.2c-0.8,30.5-2.1,53.7-4.4,75.3c-1.7,16.2-4.4,32.6-7,48.4c-4.4,26.3-8.9,53.4-8.9,80.7
			c0,0.3,0,0.5,0,0.8c0.3,45.6,7.2,91,20.6,134.5c31.5,103.9,39.1,220.9,22.5,348.1c-4.2,32.1-9.8,66-17.2,103.7l2.9,0.6
			c7.4-37.8,13-71.8,17.2-103.9c16.7-127.5,9.1-245.1-22.6-349.4c-13.3-43.3-20.2-88.3-20.5-133.7c0-0.3,0-0.5,0-0.8
			c0-27,4.5-54.1,8.8-80.2c2.6-15.9,5.4-32.3,7.1-48.6c2.3-21.6,3.6-44.9,4.4-75.5c2.1-82.7,1.7-171.4-14.7-259.8L239.1,2.3z
			 M212.1,25.6c-0.1-1-0.3-2.2-0.4-3.3c-0.9-7-2-14.9-4-18.8c-0.4-0.7-1.3-1-2-0.6c-0.7,0.4-0.9,1.2-0.6,1.9
			c1.7,3.5,2.8,11.1,3.7,17.9c0.1,1.1,0.3,2.2,0.4,3.3c0.1,0.8,0.9,1.4,1.7,1.3C211.7,27.2,212.3,26.4,212.1,25.6L212.1,25.6
			L212.1,25.6z M216.4,44.8c-0.8-2.6-1.2-5.4-1-8.2c0-0.8-0.7-1.5-1.5-1.5s-1.5,0.7-1.5,1.5c-0.2,3.1,0.2,6.2,1.1,9.1
			c0.3,0.8,1.1,1.2,1.9,1C216.2,46.5,216.6,45.6,216.4,44.8L216.4,44.8z M228.4,283.5h3v-8.7h-3V283.5z M232.2,240.4l-2.5,1.7
			c1.4,2.1,1.3,10.1-0.2,19.5l3,0.5C233.1,258.1,235.1,244.7,232.2,240.4L232.2,240.4z M220.7,568.3l-3-0.2
			c-0.1,1.3-0.1,2.6-0.1,3.8c0,8.1,1.9,15.6,3.8,22.9c1,4.1,2.1,8.4,2.8,12.6l3-0.5c-0.7-4.4-1.8-8.7-2.9-12.9
			C222.1,585.5,220.1,577.4,220.7,568.3L220.7,568.3z M415.6,127.5c1-6.4,1.5-12.9,1.7-19.4c0-0.8-0.7-1.5-1.5-1.5s-1.5,0.7-1.5,1.5
			c-0.1,6.4-0.7,12.7-1.6,19c-0.9,5.9-1.4,11.9-1.5,17.8c0,0.8,0.7,1.5,1.5,1.5s1.5-0.7,1.5-1.5
			C414.2,139.1,414.7,133.2,415.6,127.5L415.6,127.5z M212.6,503.5c0,3.3,0.2,6.6,0.8,9.9l2.9-0.7c-1-4.1-0.9-13.6-0.3-15
			c0,0.1-0.1,0.1-0.1,0.2l-2.1-2.1c-0.8,0.9-1.1,4.2-1.1,7.8L212.6,503.5z M218.7,362.4c-0.5,6.9-1.5,13.8-2.6,20.5
			c-1.4,8.8-2.8,17.9-2.8,27.3h3c0-9.1,1.4-18.1,2.8-26.8c1-6.7,2.1-13.7,2.6-20.7L218.7,362.4z M213.2,442.2
			c0.4-3.8,0.8-7.7,1.1-11.4l-3-0.2c-0.3,3.7-0.7,7.6-1,11.3c-0.8,6.7-1.3,13.5-1.4,20.3c-0.1,4.8,0.4,9.6,1.4,14.3l2.9-0.7
			c-2.3-10.4-1-22.2,0.1-33.6L213.2,442.2z M262.5,315.9h3c0.1-2.1-0.3-4.2-1.2-6.1l-2.7,1.4c0.7,1.5,1.1,3.1,1,4.7L262.5,315.9z
			 M244.1,114c-2.2-5.6-3-11.8-2.1-16.5l-2.9-0.6c-0.3,1.6-0.5,3.2-0.4,4.9c0.1,4.6,1,9.1,2.7,13.3L244.1,114z M269.9,893.9
			c-0.3,2.6-0.6,5.1-0.8,7.6l3,0.3c0.2-2.4,0.5-4.9,0.8-7.5c1-8.9,2.1-18.1,1.3-27.4l-3,0.3C272,876.2,270.9,885.2,269.9,893.9
			L269.9,893.9z M269.9,925.5c0-2.3,0-5.8-1.2-8.3l-2.6,1.4c0.9,1.8,0.9,4.9,0.9,6.9H269.9z M264.8,278.3c1,6.3,1,12.7,0,19l3,0.5
			c1.1-6.6,1.1-13.4,0-20L264.8,278.3z M249.1,415.1h-1.1c-0.8,0-1.5,0.7-1.5,1.5c0,0.8,0.7,1.5,1.5,1.5h1.1c0.8,0,1.5-0.7,1.5-1.5
			C250.6,415.8,250,415.1,249.1,415.1z M266.9,754.4c0,0.1,0,0.2,0,0.4c2.5,10.7,2.4,21.9,2.2,32.7c-0.1,11.9-0.3,24.1,3.1,35.6
			c0.3,0.8,1.1,1.2,1.9,0.9c0.7-0.3,1.1-1,1-1.8c-3.3-11.1-3.1-22.6-3-34.7c0.1-11,0.3-22.3-2.3-33.4c-0.1-0.8-0.8-1.4-1.7-1.3
			C267.3,752.8,266.7,753.5,266.9,754.4L266.9,754.4z M256.2,658.2c0.6,5.5,1.4,11,2.5,16.5c1.4,7.6,2.9,15.4,2.9,23.4
			c0,0.8,0.7,1.5,1.5,1.5s1.5-0.7,1.5-1.5c0-8.3-1.5-16.3-2.9-24c-1.1-5.4-1.9-10.8-2.5-16.2c0-0.8-0.7-1.5-1.6-1.5
			c-0.8,0-1.5,0.7-1.4,1.6C256.2,658,256.2,658.1,256.2,658.2L256.2,658.2z M268,734.2c0.2,0.8,1,1.3,1.8,1.1c0.8-0.2,1.3-1,1.1-1.8
			c-1.1-4.1-1.8-8.4-2.1-12.6c0-0.8-0.7-1.5-1.5-1.5s-1.5,0.7-1.5,1.5C265.8,724.9,267.3,731.5,268,734.2L268,734.2z M240,79.9
			c0-6.4,0-13.1-1.1-19.7l-3,0.5c1,6.4,1,12.9,1,19.3L240,79.9z M415.2,32.2c0-0.8-0.7-1.5-1.6-1.5c-0.8,0-1.5,0.7-1.4,1.6
			c0,0,0,0.1,0,0.1c1.1,12.9,1.1,33.3,1.1,49.7c0,0.8,0.7,1.5,1.5,1.5s1.5-0.7,1.5-1.5C416.2,65.7,416.2,45.2,415.2,32.2z
			 M387.7,969.2c2.2,6.6,5.5,13.3,8.6,19.7l2.7-1.4c-3.1-6.3-6.4-12.9-8.5-19.3L387.7,969.2z M441.9,839.9c0-4.2,0-9.4,2-13.4
			l-2.7-1.4c-2.3,4.7-2.3,10.3-2.3,14.8H441.9z M445.1,897.5c0.1-0.6,0.2-1.2,0.3-2c2.5-14.7,3.7-25.1,1.3-28c-0.5-0.6-1.2-1-2-1v3
			c-0.1,0-0.2,0-0.2-0.1c0.9,1,1.3,6.2-2,25.5c-0.1,0.8-0.2,1.5-0.4,2.1c-0.9,8-1.3,16.1-1.3,24.1c-0.1,12.9,1.4,25.7,4.6,38.2
			l2.9-0.8C443.6,940.8,442.6,921.3,445.1,897.5L445.1,897.5z M434.4,898c-0.2-0.8-1-1.3-1.8-1.1c-0.8,0.2-1.3,1-1.1,1.8
			c1,4,0,8-1.1,12.3c-0.2,0.8,0.3,1.6,1.1,1.8c0.8,0.2,1.6-0.3,1.8-1.1C434.4,907.3,435.5,902.7,434.4,898L434.4,898z M429.7,948.8
			c-0.8,0-1.5,0.7-1.5,1.5c0,28.9,5.4,54.3,11.2,81.3c0.5,2.6,1.1,5.2,1.6,7.8c0.2,0.8,1,1.4,1.8,1.2c0.8-0.2,1.3-1,1.1-1.8l0,0
			c-0.6-2.6-1.1-5.2-1.7-7.8c-5.7-26.8-11.1-52.2-11.1-80.7C431.2,949.5,430.5,948.8,429.7,948.8L429.7,948.8z M451.8,1019l2.9-1
			c-1.3-3.9-2.5-6.5-4.6-6.5v3c-0.1,0-0.2,0-0.3-0.1C449.8,1014.7,450.5,1015.2,451.8,1019L451.8,1019z M448.3,998
			c0.2-8-0.2-16-1.1-24l-3,0.4c0.9,7.8,1.2,15.7,1.1,23.6H448.3z M388.8,999.6l2.8-1.1c-1.7-5.2-7.3-8.1-12.5-6.3
			c-0.9,0.3-1.7,0.7-2.5,1.3l1.5,2.6c3.1-2.3,7.4-1.6,9.6,1.5C388.2,998.2,388.5,998.9,388.8,999.6L388.8,999.6z M362,863.3l2.9,1
			c1.1-3.5,1.1-9,1.1-13.5h-3C363,855,363,860.3,362,863.3z M352.3,687.4c0.5,6.6,1.5,13.1,2.6,19.3c1.4,8.1,2.8,16.4,2.8,24.9h3
			c0-8.7-1.4-17.2-2.8-25.4c-1-6.2-2.1-12.6-2.6-19.1L352.3,687.4z M370.3,703.5c0-3.4,0-6.9-1.2-9.3l-2.7,1.4c0.9,1.8,0.9,5,0.9,8
			L370.3,703.5z M385.2,885.1c-9.1-46.1,0.4-95.6,9.6-143.5c4.3-22.6,8.4-43.9,10.7-65l-3-0.3c-2.3,21-6.4,42.3-10.7,64.8
			c-6.6,34.3-13.3,69.5-13.3,103.8c-0.1,13.7,1.2,27.4,3.7,40.9L385.2,885.1z M413.8,1023c-4.2-5.2-7.6-12.4-10.4-22.2l-2.9,0.8
			c2.9,10.1,6.5,17.8,11,23.3L413.8,1023z M374.9,953.1l2.9,1c0.6-2.2,1.7-4.3,3.1-6.1c3.1,2,4.4,5.5,3.6,9.7l2.9,0.6
			c1.2-5.9-1.1-11-6.1-13.6l-1-0.5l-0.8,0.8C377.3,947.2,375.7,950,374.9,953.1L374.9,953.1z M355.6,991c-2.1,7-4.8,14.1-7.4,21
			s-5.4,14.1-7.5,21.2l2.9,0.9c2.1-7,4.8-14.1,7.4-21s5.4-14.1,7.5-21.2c1.5-5.1,2.8-10.3,4.1-15.8c2.3-9.6,4.6-19.5,8.7-28.4
			l-2.7-1.3c-4.2,9.2-6.6,19.3-8.9,29C358.4,980.9,357.1,986.1,355.6,991L355.6,991z M372.6,975.2c0,3.3-5.3,17.3-10.6,29.7l2.8,1.2
			c2.5-6,10.8-25.9,10.8-30.9H372.6z M390.8,946.4c5.9,23.7,13.8,46.2,25.7,72.8l2.7-1.3c-11.9-26.5-19.7-48.7-25.5-72.2
			c-2.9-13.4-8.7-26.8-15.2-26.4c-4.7,0.3-7.8,7.4-9.1,21.2l3,0.3c1.3-13.4,4.1-18.3,6.3-18.4C382,922.1,387.6,931.3,390.8,946.4
			L390.8,946.4z M362,765.3l3-0.1c-0.6-14.2,3.8-27.5,8-40.4c3.7-11.3,7.5-23,8-35.2l-3-0.1c-0.5,11.8-4.2,23.3-7.9,34.5
			c-4,12.3-8.2,25.1-8.2,38.9C361.9,763.5,361.9,764.4,362,765.3z M449.4,199c0.1-3.1-0.3-6.2-1.1-9.1l-2.9,1c0.8,2.7,1.1,5.4,1,8.2
			L449.4,199z M450.4,233.7h-3v11.9h3V233.7z M431.6,824.4c-0.8,0.1-1.4,0.9-1.2,1.8c0,0,0,0,0,0c2,11.1,0.6,23.4-0.6,35.2
			c-0.9,7.3-1.4,14.6-1.6,21.9c0,0.8,0.7,1.5,1.5,1.5s1.5-0.7,1.5-1.5c0.1-7.2,0.7-14.4,1.5-21.6c1.3-12,2.6-24.5,0.6-36.1
			C433.2,824.8,432.4,824.2,431.6,824.4C431.6,824.4,431.6,824.4,431.6,824.4z M445.3,170l3-0.4c-1.7-14.7-0.6-31,0.4-46.7
			c0.2-3.9,0.5-7.7,0.7-11.5l-3-0.2c-0.2,3.8-0.5,7.6-0.7,11.5c-0.6,9.8-1.3,19.7-1.3,29.4C444.4,158.1,444.7,164,445.3,170
			L445.3,170z M446.4,57.4l3-0.4c-0.9-8.3-1.5-16.7-1.6-25c-0.3-8.4-0.5-17.2-1.6-25.9l-3,0.4c1,8.5,1.3,17.2,1.6,25.6
			C444.9,40.5,445.4,49,446.4,57.4L446.4,57.4z M464.5,397.1c0,0.2,0.1,0.5,0.2,0.7c0.8,1.5,1.1,3.1,0.9,4.7c0,0.8,0.7,1.5,1.5,1.5
			s1.5-0.7,1.5-1.5c0.2-2.1-0.3-4.2-1.2-6.1c-0.4-0.8-1.3-1.1-2-0.7C464.8,396.1,464.5,396.6,464.5,397.1L464.5,397.1z M446.8,75.7
			c0.1,0.5,0.1,2.8,0.1,4.7c0,3.8,0,8.4,0.6,10.8l2.9-0.7c-0.5-2-0.5-6.6-0.5-10.1c0-5.6,0-6.5-1.5-6.7c-0.5-0.1-1.4,0-1.9,1.5
			l2.8,1c-0.3,0.4-0.8,0.6-1.3,0.6C447.4,76.6,447,76.2,446.8,75.7z M461.4,384.8l2.8-1.2c-6.7-15.6-9.1-38.1-11.1-56.1
			c-0.2-1.7-0.4-3.5-0.6-5.1l-3,0.3c0.2,1.7,0.4,3.4,0.6,5.1C452.1,346,454.5,368.7,461.4,384.8L461.4,384.8z M435.4,775h-3
			c-0.1,4.8-0.4,9.7-1,14.5c-0.6,4.9-1,9.8-1.1,14.8h3c0.1-4.8,0.4-9.7,1.1-14.5C435,784.9,435.4,779.9,435.4,775L435.4,775z
			 M434.6,758.8h3V749h-3V758.8z M454.1,667.4c2.4-6.3,4.8-12.8,4.8-19h-3c0,5.6-2.3,11.9-4.6,17.9c-1.6,3.9-2.9,7.9-3.9,11.9
			c-6,21.9-9.9,41.1-11.8,58.7l3,0.3c1.9-17.4,5.7-36.5,11.7-58.3C451.4,675,452.6,671.1,454.1,667.4L454.1,667.4z M457.9,718.6
			l-3,0.1c0.6,15.5-1.1,31.7-2.7,47.4c-1.1,10.4-2.2,21.1-2.6,31.5l3,0.1c0.4-10.3,1.5-21,2.6-31.3
			C456.8,750.7,458.5,734.4,457.9,718.6L457.9,718.6z M471,556.9l2.8,1c7.7-22.2,3.3-54.8,0.1-78.7l-3,0.4
			C474.1,503.1,478.4,535.4,471,556.9z M465.8,599.5c-0.1,1.8-0.2,3.7-0.2,5.5h3c0-1.8,0.1-3.6,0.2-5.3c0.4-3.7,0.3-7.5-0.3-11.2
			l-2.9,0.6C466.1,592.5,466.2,596,465.8,599.5z M472.4,475.1l1.1,1.1c0.6,0.6,1.6,0.5,2.1-0.1c0.5-0.6,0.5-1.5,0-2.1l-1.1-1.1
			c-0.6-0.6-1.5-0.6-2.1-0.1C471.8,473.4,471.8,474.4,472.4,475.1C472.4,475,472.4,475,472.4,475.1z M468.1,424.5
			c0.2,6.4,0.8,12.7,1.8,19c0.4,3.2,0.8,6.3,1.1,9c0.1,0.8,0.8,1.5,1.6,1.4c0.8-0.1,1.4-0.8,1.4-1.7c-0.3-2.8-0.7-5.8-1.1-9.1
			c-1.2-9.2-2.6-19.6-1.1-25c0.3-0.8-0.1-1.7-0.9-1.9c-0.8-0.3-1.6,0.1-1.9,0.9c0,0.1,0,0.1,0,0.2C468.3,419.6,468,422,468.1,424.5z
			 M457.1,311.9l3-0.5c-0.5-3.3-1.2-6.6-1.9-10.1c-2.1-10.5-4.2-21.4-3.4-31.7l-3-0.2c-0.1,1.6-0.2,3.2-0.2,4.8
			c0,9.2,1.9,18.6,3.6,27.8C455.9,305.3,456.5,308.6,457.1,311.9L457.1,311.9z M540.4,589.8h3v-4.3h-3V589.8z M534,654.8h3
			c-0.2-1.6,0.2-3.3,0.9-4.7l-2.7-1.4C534.2,650.6,533.8,652.7,534,654.8L534,654.8z M541.5,514.3c0.8,4.5,1.2,9.2,1,13.8h3
			c0.1-4.8-0.2-9.6-1.1-14.3L541.5,514.3z M557.2,1059c0.8-0.2,1.3-1,1.1-1.8v0c-0.7-2.4-1.6-4.8-2.7-7.1c-0.6-1.3-1.2-2.6-1.6-3.9
			c-16.1-41.4-22.8-90.1-21.2-153.3c1.4-56.4,8.4-113.7,15.2-169.1c4.7-38.5,9.6-78.4,12.5-117.6c8.7-115.5,6.8-211-5.7-300.4
			c-1.5-10.8-3.2-21.8-4.8-32.4c-5.8-38-11.8-77.3-11.8-116.6v-0.1c0-5.9,0-11.7,0-17.5c-0.1-45.4-0.3-88.3,9.6-134.9
			c0.2-0.8-0.3-1.6-1.1-1.9c-0.8-0.2-1.6,0.3-1.8,1.1c0,0,0,0.1,0,0.1c-10,46.8-9.9,89.9-9.7,135.5c0,5.6,0,11.3,0,17v0.5
			c0,39.5,6,78.9,11.8,117c1.6,10.6,3.3,21.6,4.8,32.4c12.5,89.1,14.4,184.3,5.7,299.7c-2.9,39.2-7.8,79-12.5,117.5
			c-6.8,55.4-13.8,112.8-15.2,169.4c-0.1,5.9-0.2,11.7-0.2,17.4c0,55.3,7,99.2,21.7,137c0.5,1.4,1.1,2.8,1.8,4.2
			c1,2.1,1.9,4.3,2.5,6.5C555.5,1058.8,556.4,1059.3,557.2,1059C557.2,1059,557.2,1059,557.2,1059z M534.8,1038.9
			c-6.2-42.1-9.2-87.7-9.4-143.5c-0.1-25.9,1-53.4,3.3-84.2c2.7-35.7,7-72,11.1-107.1c7-59.2,14.1-120.3,14-180.9
			c-0.2-67.7-7.2-136.1-14-202.3c-9-87.8-18.4-178.7-11.7-268.6c0.9-12.2,4.1-38,9.7-48.5c0.4-0.8,0.1-1.7-0.7-2
			c-0.7-0.3-1.6-0.1-2,0.6c-5.8,11-9.2,37.4-10.1,49.8c-6.8,90.1,2.6,181.1,11.7,269.1c6.8,66.1,13.8,134.5,14,202
			c0,0.6,0,1.1,0,1.7c0,59.9-7.1,120.4-14,178.9c-4.1,35.1-8.4,71.4-11.1,107.2c-2.2,29.6-3.3,56.3-3.3,81.3c0,1.1,0,2.1,0,3.2
			c0.2,55.9,3.2,101.6,9.5,143.9c0,4.2,1.2,8.3,2.3,11.9c0.4,1.2,0.7,2.4,1,3.5c0.2,0.8,1,1.3,1.8,1.1c0.8-0.2,1.3-1,1.1-1.8l0,0
			c-0.3-1.2-0.6-2.4-1-3.6c-1-3.4-2.2-7.4-2.2-11.1C534.8,1039.1,534.8,1039,534.8,1038.9L534.8,1038.9z M500.8,33.4h3V22.5h-3V33.4
			z M575.3,636.7c-1.5,12.7-3.2,25.7-4.7,38.3c-8.8,70.2-17.8,142.3-17.8,213.6c0,18.5,0.6,36.8,2,55.1
			c3.4,45.8,13.9,81.2,31.8,108.2c0.5,0.7,1.4,0.9,2.1,0.4c0.7-0.5,0.9-1.4,0.4-2.1c-17.7-26.5-28-61.5-31.3-106.8
			c-6.6-88.6,4.8-179.8,15.8-268.1c1.6-12.6,3.2-25.6,4.7-38.3c17.5-144.5,16.3-289.1-3.4-442c-5.2-40.3-3.6-81-2-120.3
			c0.9-22,1.8-44.8,1.5-67.4c0-0.8-0.7-1.5-1.5-1.5c0,0,0,0,0,0c-0.8,0-1.5,0.7-1.5,1.5c0.3,22.5-0.6,45.2-1.5,67.2
			c-1.6,39.5-3.2,80.2,2,120.8C591.6,348.1,592.7,492.4,575.3,636.7L575.3,636.7z M517.6,940.1c-0.3-0.8-1.1-1.2-1.9-1
			c-0.8,0.3-1.2,1.1-1,1.9c0.7,2.2,1.2,5.2-0.7,7.1c-0.6,0.6-0.5,1.6,0.1,2.1c0.6,0.5,1.5,0.5,2,0C518.5,948,519,944.4,517.6,940.1z
			 M518.7,1012.6c-2.9-8.3-2.9-16.8-2.8-25.9c0-7,0.1-14.3-1.4-21.5c-0.1-0.8-0.9-1.4-1.7-1.2c-0.8,0.1-1.4,0.9-1.2,1.8
			c0,0,0,0.1,0,0.1c1.4,7,1.3,14.1,1.3,20.9c0,8.9-0.1,18.2,3,26.9c0.3,0.8,1.1,1.2,1.9,0.9C518.6,1014.3,519,1013.4,518.7,1012.6
			L518.7,1012.6L518.7,1012.6z M539.3,1041.3c-0.4,1.1,0.2,2.3,1.3,2.7c1.1,0.4,2.3-0.2,2.7-1.3c0-0.1,0.1-0.2,0.1-0.3
			c0-1.4-1.1-2.6-2.5-2.6c0,0-0.1,0-0.1,0C540,1039.8,539.3,1040.4,539.3,1041.3L539.3,1041.3z M574.5,300.8h3
			c-0.1-3.2-0.9-6.4-2.3-9.3l-2.7,1.4C573.8,295.3,574.5,298,574.5,300.8L574.5,300.8z M490.1,102c0.6,9.9,1.2,20.3,1.6,30.1
			c2.4,59.8,8.1,120.3,13.6,178.8c3.2,34.7,6.6,70.7,9.3,106.1c2.1,28,3.5,53,4.5,76.4c1.6,40.8,0.9,74.2-2.2,104.9
			c-8.5,69.3-16.1,139.8-23.5,207.9c-3.9,38.9-7.2,80.9-7.2,122.8c0,38.2,2.8,76.2,10.5,111.5c1.1,5.5,2.2,9.9,3.2,14.2
			c0.2,0.8,1,1.3,1.8,1.1c0.8-0.2,1.3-1,1.1-1.8c-1-4.2-2.1-8.6-3.2-14c-16-73.6-10.6-159.3-3.2-233.4c7.4-68.1,15-138.6,23.5-207.9
			c3-30.9,3.7-64.4,2.2-105.4c-0.9-23.4-2.4-48.5-4.5-76.5c-2.7-35.4-6-71.3-9.3-106.1c-5.5-58.5-11.1-119-13.5-178.6
			c-0.4-9.9-1-20.3-1.6-30.2c-2.2-35.7-4.4-72.7,2.1-107.2c0.2-0.8-0.4-1.6-1.2-1.8c-0.8-0.2-1.6,0.4-1.8,1.2l0,0
			C485.7,29,487.9,66.1,490.1,102L490.1,102z M499.2,659c0.4,0.9,0.3,5.5-1.3,7.9l2.5,1.7c2.2-3.3,2.5-9.2,1.5-11
			c-0.3-0.7-1-1.1-1.7-1.1v3C499.8,659.6,499.4,659.4,499.2,659L499.2,659z M560.2,2.6c-0.8-0.1-1.6,0.4-1.7,1.2c0,0,0,0,0,0
			c-15.2,91.3-5.3,184.6,4.2,274.6c2.3,22,4.8,44.8,6.8,67.2c3.4,38,5.1,69.3,5.3,98.2c0.5,62.1-5,124.8-10.5,177.9
			c-1.6,15.7-3.4,31.6-5,47c-4.4,40.6-9,82.6-12,124c-0.5,7.1-1,14.2-1.6,21.4c-2.5,33.7-5.1,68-5.1,101.8c0,44.3,4.4,87.9,19,128.9
			c0,0.1,0.1,0.2,0.2,0.3c1,1.6,1.8,3.4,2.5,5.2c0.4,1.3,1.1,2.6,1.9,3.7c0.6,0.6,1.6,0.5,2.1-0.1c0.5-0.6,0.5-1.5,0-2.1
			c-0.5-0.9-1-1.8-1.3-2.7c-0.7-1.9-1.6-3.8-2.7-5.6c-25.5-71.7-19.5-151.8-13.7-229.3c0.5-7.2,1.1-14.3,1.6-21.4
			c3-41.4,7.5-83.3,11.9-123.9c1.7-15.4,3.4-31.3,5-47c5.5-53.2,11.1-116,10.6-178.3c-0.2-29.1-1.9-60.4-5.3-98.5
			c-2-22.4-4.4-45.2-6.8-67.2c-9.5-89.9-19.4-182.9-4.2-273.9C561.5,3.6,561,2.9,560.2,2.6L560.2,2.6z M506.2,613.2
			c-2.5,8.4-3.1,16-3.7,24.1c-0.2,2.5-0.4,5.1-0.6,7.6l3,0.3c0.3-2.6,0.5-5.2,0.6-7.7c0.6-7.9,1.2-15.4,3.6-23.4L506.2,613.2z
			 M585,172.9l-3.2-29.2l-3,0.3l3.2,29.2L585,172.9z M584,195.8c0-0.8-0.3-1.6-0.7-2.3c-0.2-0.3-0.3-0.6-0.4-0.9h-3
			c0,0.8,0.3,1.6,0.7,2.3c0.2,0.3,0.3,0.6,0.4,0.9H584z M605.1,1049.1c-28.9-45.7-35.5-101.7-38.1-150.5
			c-4.1-75.8,6.9-151.8,17.5-225.3c8.8-60.7,17.9-123.4,18.5-185.8c0.8-83.9-3.6-169.1-7.9-251.6c-3.9-75.9-8-154.4-8-231.7
			c0-0.8-0.7-1.5-1.5-1.5s-1.5,0.7-1.5,1.5c0,77.3,4,155.9,8,231.8c4.2,82.4,8.6,167.6,7.9,251.4c-0.6,62.2-9.7,124.9-18.4,185.5
			c-9.1,62.8-18.5,127.4-18.5,192.3c0,11.2,0.3,22.4,0.9,33.6c2.7,49.2,9.3,105.7,38.5,152c0.4,0.7,1.4,0.9,2.1,0.5
			c0.7-0.5,0.9-1.4,0.5-2.1L605.1,1049.1z M567.1,2c0,0.8,0.7,1.5,1.5,1.5c0.7,0,1.3-0.5,1.5-1.1c0.8-0.1,1.4-0.9,1.3-1.7
			s-0.9-1.4-1.7-1.3l0,0c-1.4,0-2.5,1.1-2.6,2.5C567.1,1.9,567.1,1.9,567.1,2z M625.8,77.8c-0.4,14-0.8,28.2-0.8,42.4
			c0,40.9,3.4,82,20.2,120.7l2.8-1.2c-22.3-51.4-20.7-107.4-19.2-161.7c0.7-23.9,1.4-48.6,0.1-72.7l-3,0.2
			C627.2,29.2,626.5,53.9,625.8,77.8L625.8,77.8z M598,902.7h3c0-3.4,0-8-2.4-11.7l-2.5,1.7C598,895.6,598,899.6,598,902.7z
			 M607.4,713.6c-9,45.4-19,103.8-19,163.9c0,6.8,0.1,13.6,0.4,20.4c1.1,28.1,6,54.2,14.4,77.7c4.5,12.6,10.3,24.8,15.9,36.7
			c6.3,13.4,12.8,27.2,17.5,41.5l2.8-1c-4.8-14.5-11.3-28.4-17.6-41.8c-5.5-11.8-11.3-24-15.8-36.4c-8.3-23.1-13.1-49-14.2-76.7
			c-2.6-66.8,8.5-133.2,18.5-183.6c3.3-16.8,7.2-34.1,10.9-50.7c8-35.8,16.2-72.8,20.3-109.2l-3-0.3c-4.1,36.3-12.3,73.2-20.3,108.9
			C614.6,679.5,610.8,696.7,607.4,713.6L607.4,713.6z M600.1,939.5h3c-0.1-8.4-0.8-16.8-2.1-25.1l-3,0.4
			C599.3,923,600,931.3,600.1,939.5L600.1,939.5z M599.1,843.8c-3.3,11-3.3,26.2-3.3,38.3h3c0-12,0-26.8,3.1-37.5L599.1,843.8z
			 M611.2,776.9c-3.5,31.5-6.7,64.9-6.7,98.4c0,54.9,8.3,110.5,36.3,160.3l2.6-1.5c-44.8-79.5-38.6-174.2-29.3-256.8
			c3.2-28.9,9.2-57.8,15-85.8c5.5-26.4,11.1-53.6,14.5-80.9l-3-0.4c-3.3,27.1-9,54.3-14.4,80.6C620.5,718.9,614.5,747.9,611.2,776.9
			L611.2,776.9z M626.6,841c0.1,3.8,0.1,7.7,0.1,11.6c0.2,28.7,0.3,61.3,15.3,85.6l2.5-1.6c-14.5-23.6-14.7-55.7-14.9-84
			c0-4,0-7.9-0.1-11.7c-0.5-31.2,0.7-67.6,13-101.1l-2.8-1c-11.1,30.1-13.3,62.4-13.3,91.3C626.5,833.7,626.6,837.4,626.6,841
			L626.6,841z M498.7,51.8c0,5.5,0,9.9,1.1,15.5l2.9-0.6c-0.9-4.9-1.2-9.9-1-14.9H498.7z M624,927.9c1.7,11.6,3.9,23.3,6,34.6
			c1.9,9.9,3.8,20.3,5.4,30.4l3-0.5c-1.6-10.2-3.5-20.5-5.4-30.5c-2.1-11.3-4.3-22.9-6-34.5c-13.2-90.2-7.6-173.3,16.7-247.2l-2.8-1
			C625,727.5,617,779.6,617,835.1C617.1,866.1,619.4,897.1,624,927.9z M610.5,65.5c0.1,2.5,0.2,4.9,0.3,7.3c1,30.7,3.1,61,4.8,83.9
			c1.3,17,2.7,34.2,4.1,50.9c3.2,38.5,6.5,78.3,8.2,117.6c3.7,87.5,2.1,165-4.8,237.1c-4,41.8-12.4,85.4-20.6,127.5
			c-11.8,61.4-23.9,124.2-23.9,186.2c0,31.6,3.1,63,11.1,94c9.1,35.6,26.4,71.1,46.2,95.1l2.3-2c-19.6-23.6-36.6-58.7-45.6-93.9
			c-23.3-91-4.9-186.5,12.9-278.8c8.1-42.2,16.5-85.9,20.6-127.8c7-72.2,8.6-149.9,4.8-237.5c-1.7-39.3-5-79.2-8.2-117.7
			c-1.4-16.7-2.8-33.9-4.1-50.9c-1.7-22.9-3.8-53.1-4.8-83.7c-0.1-2.4-0.2-4.8-0.3-7.3c-0.8-21-1.6-42.8,5.6-61.7l-2.8-1.1
			C608.8,22,609.7,45.1,610.5,65.5z M507.3,804.6c1-11.3,2-22.9,4-34.8c0.1-0.8-0.4-1.6-1.3-1.8s-1.6,0.4-1.7,1.3l0,0
			c-2,12-3,23.7-4,35l-0.3,3c0,0,0,0.1,0,0.1c0,0.8,0.6,1.5,1.4,1.6c0.8,0,1.5-0.6,1.6-1.5L507.3,804.6z M507.9,887.6
			c-2.5,27.1-5,54.6-5,82.1c0,25.7,2.2,51.4,8.7,76.4c1,3.2,2.1,7.6,3.2,11.8c0.2,0.8,1,1.3,1.8,1.1c0.8-0.2,1.3-1,1.1-1.8l0,0
			c-1.1-4.3-2.2-8.7-3.2-11.9c-13.3-51.3-8.4-105.2-3.6-157.4c1.3-14.7,2.7-29.8,3.7-44.6c2.7-35.8,5.4-71.4,8-107
			c2.7-35.3,5.3-70.7,8-106.3l0.3-4.8c5.2-73,10.2-142,1.8-215.3C519,291.3,512.2,188.1,511.8,94.2c-0.1-20.3,2-40.5,4-60.1
			c1.1-10.8,2.2-21.9,3-33.1c0.1-0.8-0.5-1.6-1.4-1.6c0,0,0,0,0,0c-0.8-0.1-1.5,0.6-1.6,1.4c-0.8,11.1-1.9,22.2-3,33
			c-2,19.7-4.1,40-4,60.4c0.5,94.1,7.3,197.5,20.9,316.1c8.3,73,3.4,141.8-1.8,214.7l-0.3,4.8c-2.7,35.6-5.3,70.9-8,106.3
			c-2.7,35.6-5.4,71.2-8,107C510.6,857.8,509.2,873,507.9,887.6L507.9,887.6z M500.9,94h3c0-1.8-0.4-3.5-1.2-5l-2.7,1.4
			C500.6,91.5,500.9,92.7,500.9,94L500.9,94z M504.9,820c-0.3-0.8-1.1-1.2-1.9-0.9c-0.7,0.3-1.1,1-1,1.8c1,2.8,1,5.9,0,8.8
			c-0.3,0.8,0.2,1.7,0.9,1.9c0.8,0.3,1.6-0.2,1.9-1C506,827.2,506,823.4,504.9,820L504.9,820z M622.6,426.4h3v-6.5h-3V426.4z
			 M619.4,364.7h3c0.2-4.5-0.2-9-1.1-13.4l-2.9,0.7C619.4,356.2,619.4,360.3,619.4,364.7L619.4,364.7z M597,95.8
			c-0.3,17.8-0.6,36.2,0.2,54.1c1.6,38.5,4.1,77.5,6.5,115.2c5.5,87.4,11.3,177.7,6.9,267.1c-2.5,51.2-10.8,103.2-18.9,153.5
			c-9.7,60.5-19.6,122.4-19.6,184.5c-0.2,28.9,2.3,57.8,7.4,86.3c7,38.2,20.8,76.3,39,107.3l2.6-1.6c-18-30.7-31.8-68.4-38.7-106.3
			c-16.4-90.3-1.8-181.6,12.3-269.8c8.1-50.3,16.4-102.4,18.9-153.8c4.3-89.6-1.4-180-6.9-267.5c-2.4-37.7-4.9-76.7-6.5-115.1
			c-0.8-17.8-0.5-36.2-0.2-53.9c0.5-31.8,1-64.7-4.3-96.3l-3,0.5C598,31.3,597.5,64.1,597,95.8z M257.3,4.8c-0.8,0.2-1.2,1.1-1,1.9
			c8.4,29.3,9.6,60.3,10.7,90.3c0.2,5.7,0.4,11.6,0.7,17.4c0.7,15.6,1.7,31.5,2.7,46.9c1.5,23.7,3,48.1,3.6,72.2
			c1,42.5-1.8,85.1-8.4,127.1c-1,6.4-2,12.7-3,19c-5.7,35.7-11.1,69.9-11.1,104.8c-0.1,16.3,1.3,32.6,4,48.6
			c4.5,26.4,10.7,52.9,16.7,78.5c5.6,23.9,11.3,48.5,15.7,73.1c10.3,57.3,15.8,110,16.7,160.9c0.8,46.6-4.4,93.2-9.4,138.3
			c-2,18.4-4.1,37.3-5.8,56.1c-1.1,4.5-1.1,7.8-1.1,13.2c0,0.8,0.7,1.5,1.5,1.5s1.5-0.7,1.5-1.5c0-5.3,0-8.5,1-12.6
			c0-0.1,0-0.2,0-0.2c1.7-18.8,3.8-37.8,5.8-56.2c5-45.2,10.2-91.9,9.4-138.7c-0.9-51.1-6.4-103.9-16.7-161.4
			c-4.4-24.6-10.2-49.3-15.8-73.2c-6-25.6-12.1-52-16.6-78.3c-8.9-51.7-1.1-100.6,7.1-152.4c1-6.3,2-12.7,3-19.1
			c6.6-42.2,9.4-85,8.4-127.7c-0.6-24.1-2.1-48.6-3.6-72.3c-1-15.4-1.9-31.2-2.7-46.9c-0.3-5.8-0.5-11.7-0.7-17.4
			c-1.1-30.2-2.3-61.4-10.9-91.1C258.9,5.1,258.1,4.6,257.3,4.8C257.3,4.8,257.3,4.8,257.3,4.8z M277.6,68c0,0.1,0,0.1,0,0.2
			c1.2,10,1.9,20.1,2.1,30.1c0,0.8,0.7,1.5,1.5,1.5s1.5-0.7,1.5-1.5c-0.2-10.2-0.9-20.3-2.1-30.5c0-0.8-0.8-1.5-1.6-1.4
			C278.2,66.5,277.5,67.2,277.6,68L277.6,68z M461,54.8c0.1-16.3,0.1-33.2,0.1-49.7c0-0.8-0.7-1.5-1.5-1.5s-1.5,0.7-1.5,1.5
			c0,16.4-0.1,33.3-0.1,49.6c-0.4,85.6-0.8,174.1,9,259.1c1.4,12.3,2.9,24.7,4.4,36.7c8.7,71.3,16.8,138.7,9.9,209.8
			c-2.4,24.4-5.7,49.2-8.8,73.1c-3,22.8-6.1,46.4-8.5,69.7C457,771,453.6,832,453.6,888.4c0,52.3,2.9,100.5,8.8,146.6v0.1
			c1,5.2,2.1,10.7,2.1,15.9c0,0.8,0.7,1.5,1.5,1.5s1.5-0.7,1.5-1.5c0-5.5-1.1-11.1-2.2-16.5c-12.2-95.5-11.7-200.7,1.5-331.1
			c2.4-23.2,5.5-46.8,8.5-69.6c3.2-24,6.5-48.7,8.9-73.2c7-71.4-1.2-138.9-9.9-210.4c-1.5-12-3-24.4-4.4-36.7
			C460.2,228.8,460.6,140.3,461,54.8z M280.8,127.6c0,0.8,0.7,1.5,1.5,1.5s1.5-0.7,1.5-1.5v-8.7c0-0.8-0.7-1.5-1.5-1.5
			s-1.5,0.7-1.5,1.5V127.6z M286.1,204.4c0,0.2,0,0.3,0.1,0.5c1.2,3.3,1.9,6.8,2.1,10.3c0,0.8,0.7,1.5,1.5,1.5s1.5-0.7,1.5-1.5
			c0-4.1-1.5-9.3-2.2-11.3c-0.3-0.8-1.1-1.2-1.9-0.9C286.5,203.2,286.1,203.8,286.1,204.4L286.1,204.4z M227.4,626.6
			c0,4,0.9,10,3.5,13.8l2.5-1.7c-2-3.1-3-8.3-3-12.2L227.4,626.6z M184.3,41.5l-2.8,1c2.9,7.5,4.2,15.2,5.4,22.5
			c0.9,6.3,2.3,12.5,4.1,18.5l2.9-1c-1.8-5.9-3.1-12-4-18.1C188.6,57.1,187.3,49.3,184.3,41.5z M299.6,684.5
			c0.9,3.2,1.9,6.4,2.6,9.6c0.2,0.8,1,1.3,1.8,1.2c0.8-0.2,1.3-1,1.1-1.8c-0.7-3.3-1.7-6.6-2.6-9.8c-1.8-6.3-3.7-12.8-3.7-19.1
			c0-0.8-0.7-1.5-1.5-1.5s-1.5,0.7-1.5,1.5C295.7,671.3,297.7,678,299.6,684.5z M225,1055.4c0-1.9,0.2-3.8,0.5-5.7
			c0.3-2,0.5-4,0.6-6.1c14-87.3,9.8-174.2,3.8-247.6c-3.2-39-7.4-78.6-11.6-116.9c-5.8-53.7-11.8-109.3-14.8-164.2
			c-3.1-55.7,2.4-110.4,8.2-161.6c3.1-27.6,5.6-54.6,7.2-80.3c3.1-46.8,3.2-93.7,0.4-140.5c-0.2-2.6-0.3-5.2-0.5-7.8
			c-2.5-40.5-5.3-86.3-22.9-123.4c-0.4-0.7-1.3-1-2-0.6c-0.7,0.4-1,1.2-0.7,1.9c17.3,36.5,20.1,82.1,22.6,122.2
			c0.2,2.6,0.3,5.2,0.5,7.8c2.8,46.7,2.7,93.5-0.4,140.1c-1.6,25.6-4.1,52.6-7.2,80.2c-5.9,51.4-11.3,106.1-8.3,162.1
			c3,55,9,110.6,14.8,164.4c4.1,38.2,8.4,77.8,11.6,116.8c5.9,73.3,10.1,160-3.8,247c0,0.1,0,0.2,0,0.2c0,1.9-0.2,3.8-0.5,5.7
			c-0.3,2-0.5,4.1-0.6,6.2c0,0.8,0.7,1.5,1.5,1.5S225,1056.2,225,1055.4L225,1055.4z M251,942.5c-1.7,34.9-4.6,75.3-17.1,112.4
			c-0.3,0.8,0.1,1.7,0.9,1.9s1.6-0.1,1.9-0.9c12.6-37.5,15.5-78.1,17.3-113.3c5.4-108.9,3-204.3-7.5-291.5
			c-1.7-14.4-3.7-29-5.7-43.2c-4.8-34.6-9.7-70.4-11-105.9c-1.9-52.2,2.4-104.9,6.6-150.1c2.9-31.4,4.6-55.5,5.3-78
			c1.5-48.5-3.4-97.4-8.2-144.7c-4-39.5-8.1-80.3-8.5-120.7c0-0.8-0.7-1.5-1.5-1.5S222,7.7,222,8.5l0,0l0,0
			c0.3,40.5,4.5,81.4,8.5,121c4.8,47.2,9.7,96,8.2,144.3c-0.7,22.4-2.3,46.4-5.3,77.8c-4.2,45.3-8.6,98.1-6.6,150.5
			c1.3,35.7,6.2,71.5,11,106.2c1.9,14.1,3.9,28.8,5.7,43.1C254,738.5,256.4,833.7,251,942.5z M242.3,822.7h3
			c0-4.5-1.1-10.1-2.2-15.5l-2.9,0.6C241.2,813,242.3,818.4,242.3,822.7L242.3,822.7z M240.2,754.4h3c0-1.8-0.4-3.5-1.2-5l-2.7,1.4
			C239.9,751.9,240.2,753.1,240.2,754.4L240.2,754.4z M195,97.6l-2.7,1.4c0.7,2.5,1.4,5,1.8,7.6c1,5.1,2.2,10.8,3.5,13.9l2.8-1.1
			c-1.1-2.9-2.4-8.7-3.3-13.4C196.1,101.3,195.5,98.7,195,97.6z M232.5,669.7l-3,0.4c2,14.2,3,29.1,4.1,43.6l0.2,2.8l3-0.2l-0.2-2.8
			C235.6,699,234.5,684,232.5,669.7L232.5,669.7z M311.8,942.8c0,0.8,0.7,1.5,1.5,1.5s1.5-0.7,1.5-1.5v-4.3c0-0.8-0.7-1.5-1.5-1.5
			s-1.5,0.7-1.5,1.5V942.8z M318.2,855.3c0.5,4.7,0,9.9-0.5,14.8c-0.4,3.6-0.7,7.3-0.8,11c0,1.5,0.1,3,0.2,4.5
			c0.1,0.8,0.8,1.4,1.7,1.4c0.8-0.1,1.4-0.8,1.3-1.7c-0.5-4.7,0-9.9,0.5-14.8c0.5-5.1,1.1-10.4,0.5-15.5c-0.1-0.8-0.8-1.4-1.7-1.4
			S318.1,854.4,318.2,855.3z M307.5,723c0,0.8,0.7,1.5,1.5,1.5s1.5-0.7,1.5-1.5v-5.4c0-0.8-0.7-1.5-1.5-1.5s-1.5,0.7-1.5,1.5V723z
			 M313.9,914.6c0,0.8,0.7,1.5,1.5,1.5s1.5-0.7,1.5-1.5l0,0V907c0-0.8-0.7-1.5-1.5-1.5s-1.5,0.7-1.5,1.5l0,0V914.6z M269,9.5
			c0,0.1,0,0.2,0,0.3c1,6.3,4.2,29,5.3,40c0.1,0.8,0.8,1.5,1.6,1.4s1.4-0.8,1.4-1.7c-1-11-4.3-33.8-5.3-40.2
			c-0.1-0.8-0.8-1.5-1.6-1.4C269.6,8,268.9,8.7,269,9.5z M475.2,265.1c0,0.8,0.7,1.5,1.5,1.5s1.5-0.7,1.5-1.5v-8.7
			c0-0.8-0.7-1.5-1.5-1.5s-1.5,0.7-1.5,1.5V265.1z M173.5,1022.6c-1.3,7.6-2.5,15.1-3.8,22.7c-1.3,4-2.1,8.1-2.2,12.3h3
			c0.1-3.9,0.8-7.8,2.1-11.4l0.1-0.2c1.3-7.6,2.5-15.2,3.8-22.8c9.5-56.8,19.3-115.4,19.6-174.5c0-1.1,0-2.3,0-3.4
			c0-52.5-5.8-105.4-11.4-156.6c-6.5-59.5-13.2-121-10.9-182c1.5-39.6,5.9-79.8,10.2-118.7c6.9-62.7,13.9-127.6,9.2-191.7
			c-4.1-55.7-14-111.5-23.7-165.5c-1.4-8.2-2.9-16.3-4.3-24.5l-3,0.5c1.4,8.2,2.9,16.4,4.4,24.5c9.6,53.9,19.6,109.7,23.6,165.2
			c4.7,63.8-2.4,128.6-9.2,191.2c-4.2,39-8.6,79.3-10.2,118.9c-2.4,61.2,4.4,122.9,10.9,182.4c5.7,52.2,11.6,106.2,11.4,159.6
			C192.8,907.4,183,965.9,173.5,1022.6z M478.2,314.6c0,11.3,2.8,21.8,5.6,32.1c0.2,0.8,1,1.3,1.8,1.2c0.8-0.2,1.3-1,1.1-1.8
			c0-0.1,0-0.1,0-0.2c-3.1-11.6-6.3-23.6-5.3-36.3c0.1-0.8-0.5-1.6-1.4-1.6c-0.8-0.1-1.6,0.6-1.6,1.4
			C478.3,311.1,478.2,312.8,478.2,314.6L478.2,314.6z M176.9,697.8l-2.9,0.6c0.5,2.6,0.8,5.4,1,8c0.2,2.6,0.5,5.5,1.1,8.3l2.9-0.6
			c-0.5-2.6-0.8-5.4-1-8S177.5,700.6,176.9,697.8z M179.3,755.5h3c0-6.6-1.1-13.3-2.2-19.7l-3,0.5
			C178.2,742.6,179.3,749.1,179.3,755.5L179.3,755.5z M475,126.5c0-1.8-0.4-3.5-1.2-5l-2.7,1.4c0.6,1.1,1,2.4,0.9,3.6H475z
			 M470.9,201.2c0,0.1,0,0.2,0,0.2c0.9,6.9,1.2,13.8,1.1,20.7c0,7.1,0,13.8,1.1,20.4c0.1,0.8,0.9,1.4,1.7,1.3
			c0.8-0.1,1.4-0.9,1.3-1.8c-1-6.4-1-13-1-19.9c0.2-7.1-0.2-14.2-1.1-21.2c-0.1-0.8-0.8-1.5-1.6-1.4
			C471.6,199.6,470.9,200.3,470.9,201.2L470.9,201.2z M475,151.4h-3v7.6h3V151.4z M217.2,837.9c-1-55.4-6.9-111.3-12.5-165.4
			c-7.8-74.1-15.8-150.7-11.4-226.8c1.8-32.4,4.8-65.1,7.7-96.7c8.6-95,17.5-193.2-3.6-290.7c-1.5-6.7-3.4-13.6-5.3-20.3
			c-3.3-11.5-6.6-23.3-7.6-35l-3,0.3c1,12,4.4,24,7.7,35.6c1.9,6.6,3.8,13.4,5.3,20.1c21,97,12.1,195,3.5,289.9
			c-2.9,31.7-5.8,64.4-7.7,96.8c-4.4,76.4,3.7,153.1,11.4,227.3c5.6,54,11.5,109.8,12.5,165.1c1.4,74.2-7.8,147.5-16.8,218.3l3,0.4
			C209.4,985.7,218.6,912.3,217.2,837.9z M199.6,164.4h3c0-3.6-1.2-6-3.5-9.5l-2.5,1.7C198.7,159.7,199.6,161.5,199.6,164.4z
			 M200.7,792.3h3c0.2-2.5-0.2-4.9-1.2-7.2l-2.7,1.4C200.5,788.3,200.8,790.3,200.7,792.3L200.7,792.3z M196.4,965.1
			c-1.9,6.9-3,14.6-4,21.5l-0.4,2.5l3,0.4l0.4-2.5c0.9-6.8,2-14.4,3.9-21.1L196.4,965.1z M181.4,578h3v-16.2h-3V578z M186.8,621.2h3
			c0.1-2.1-0.3-4.2-1.2-6.1l-2.7,1.4C186.5,618,186.8,619.6,186.8,621.2z M218.9,946.7l2.9,0.7c1.1-4.4,2.2-9,1.1-14.7l-2.9,0.6
			C220.9,938.4,219.9,942.5,218.9,946.7L218.9,946.7z M220.8,965.5h-3v6.5h3V965.5z M190.8,1010.5l-2.9,1c2.8,8.4-0.4,16.9-3.4,25
			l-0.8,2.1l2.8,1.1l0.8-2.1C190.4,1029.3,193.9,1020,190.8,1010.5L190.8,1010.5z M310.5,99.1c-1-6.4-1-18.1-1-22.5
			c0-0.8-0.7-1.5-1.5-1.5s-1.5,0.7-1.5,1.5c0,4.5,0,16.4,1.1,23c0.1,0.8,0.9,1.4,1.7,1.3C310.1,100.8,310.7,100,310.5,99.1
			L310.5,99.1z M63,1048.5c0.8,1.5,1.8,3,2.8,4.5c1,1.6,2.1,3.2,2.6,4.2l2.7-1.4c-0.8-1.5-1.8-3-2.8-4.5c-1-1.6-2.1-3.2-2.6-4.1
			c-10.6-24.3-5.3-54.7-0.6-81.4c1.3-7.4,2.5-14.4,3.4-21.2c5.3-40,9.1-80.3,11.2-119.9c2.4-45.2-0.6-91-3.6-135.3
			c-2.1-32.1-4.3-65.3-4.4-97.9C71.7,568,73.1,543,76.2,513c0.7-7,1.5-14,2.3-21c4.1-37.1,8.3-75.5,7.3-114
			c-1.1-47.3-7.5-94.9-13.7-140.9c-6.8-50.7-13.8-103.1-13.8-155.1c0-1.9,0-3.9,0-6C58.3,54.6,58.2,22,66.8,2.6l-2.8-1.2
			c-8,18-8.7,46.3-8.7,67.7c0,2.5,0,4.8,0,7.1c0,2.1,0,4.1,0,5.9c0,52.2,7,104.7,13.8,155.4c6.2,45.9,12.5,93.5,13.7,140.6
			c0.9,38.3-3.1,74.8-7.3,113.5c-0.8,7-1.5,14-2.3,21c-3.2,30.2-4.6,55.2-4.5,78.9c0.1,32.8,2.3,66,4.5,98.1
			c2.9,44.2,6,89.9,3.6,134.9c-2.1,39.5-5.9,79.7-11.2,119.6c-0.9,6.7-2.1,13.7-3.4,21.1C57.4,992.4,52,1023.2,63,1048.5z
			 M53.3,933.6l2.8,1.1c4.4-11.8,6.5-21.6,6.5-29.8h-3C59.7,912.6,57.5,922.2,53.3,933.6z M127.8,323.6l-3-0.2
			c-0.2,2.6-0.2,5.3-0.2,7.9c0,5.2,0.2,10.3,0.5,15.4c0.4,9.4,0.9,19.1-0.2,28.6l3,0.4c1.2-9.8,0.7-19.6,0.3-29.1
			C127.6,338.9,127.5,331.3,127.8,323.6L127.8,323.6z M173.2,176.1c11.9,83.1,2.4,167-6.8,248c-2.4,20.9-4.8,42.6-6.9,64
			c-5.5,56.9-6.1,109.4-2,160.4c2.1,25.9,4.7,51.5,7.6,79.8c7.2,70.7,13.6,163.7-1.9,256.8c-4,24.3-9.3,48.4-15.9,72.1l2.9,0.8
			c6.6-23.8,11.9-48,16-72.4c15.5-93.5,9.2-186.8,1.9-257.6c-2.9-28.3-5.5-53.8-7.6-79.7c-4.1-50.8-3.5-103.1,2-159.8
			c2-21.3,4.5-43,6.9-63.9c9.2-81.3,18.7-165.3,6.8-248.8c-7.8-54.7-21.4-109.3-34.4-162c-1.4-5.8-2.9-11.7-4.3-17.5l-2.9,0.7
			c1.4,5.8,2.9,11.7,4.3,17.5C151.9,67.1,165.4,121.5,173.2,176.1L173.2,176.1z M46.8,991.5h3v-10.8h-3V991.5z M328.9-0.9
			c10.3,43.6,14.2,95.9,11.7,155.5c-0.8,21.5-0.7,43.5-0.6,64.6c0.2,35.4,0.3,72-3.7,108.5c-0.3,3.3-0.5,6.9-0.8,10.7
			c-1.8,23.9-4.2,56.8-16,75.2l2.5,1.7c12.2-19.1,14.7-52.3,16.5-76.6c0.3-3.8,0.5-7.4,0.8-10.7c4-36.6,3.8-73.3,3.7-108.8
			c-0.1-21.2-0.2-43,0.6-64.5c2.5-59.9-1.5-112.5-11.8-156.3L328.9-0.9z M342.8,0.2c4.5,16.4,9.6,40.4,8.5,61.2l3,0.2
			c1.2-21.2-4-45.5-8.6-62.2L342.8,0.2z M290.5,283.8c-2.9,25.7-7.8,51.5-12.5,76.5c-4.8,25.7-9.8,52.2-12.7,78.6
			c-1.7,15-2.6,30.2-2.7,45.3c-0.1,14.4,1,28.8,3.1,43.1c4.4,28.5,13.5,56.2,22.3,83c3.7,11.2,7.5,22.8,10.9,34.3
			c11.8,39.6,20.3,81.4,27.9,118.2c10.7,52,6.1,106.3,1,147.8c-2.5,20.6-5.8,41.4-9,61.6c-0.6,4-1.2,7.9-1.9,11.9
			c-0.6,3.9-1.3,7.9-2,11.8c-3.3,19.4-6.8,39.4-3.1,58.8c0.2,0.8,0.9,1.4,1.8,1.2s1.3-1,1.2-1.8c-3.6-18.8-0.2-38.6,3.1-57.7
			c0.7-3.9,1.4-8,2-11.9s1.2-7.9,1.9-11.9c3.2-20.2,6.5-41,9-61.7c5.2-41.8,9.7-96.4-1-148.8c-7.6-36.9-16.1-78.7-27.9-118.4
			c-3.4-11.5-7.2-23.1-10.9-34.3c-8.8-26.7-17.8-54.2-22.2-82.5c-4-25.8-4.1-54.4-0.4-87.6c2.9-26.4,7.9-52.8,12.7-78.4
			c4.7-25,9.5-50.9,12.5-76.7c5.7-49.5,6.4-104.4,2.2-172.8c-2.3-37.6-4.9-80.2-20.5-116.5c-0.3-0.8-1.2-1.1-2-0.8s-1.1,1.2-0.8,2
			c15.4,35.8,18,78.1,20.3,115.5C296.8,179.8,296.1,234.5,290.5,283.8z M325.7,52c4.3,29.1,4.3,58.8,4.3,87.5h3
			c0-28.8,0-58.6-4.3-87.9L325.7,52z M108.9,895.7l2.8,1c0.9-2.9,1.3-6,1.2-9.1h-3C110,890.3,109.7,893.1,108.9,895.7z M47.9,128.7
			h3c0.1-3.1-0.3-6.2-1.2-9.1l-2.8,1C47.7,123.2,48,125.9,47.9,128.7z M117.4,450l2.9,0.6l3.2-16.2l-2.9-0.6L117.4,450z M390.9,54.6
			c0.6-17.7,1.2-37.7-4.7-53.2l-2.8,1.1c5.7,14.9,5.1,34.6,4.5,52c-0.2,5.1-0.3,10-0.3,14.6V146h3V69.1
			C390.6,64.5,390.8,59.7,390.9,54.6z M123.7,401.5h3c0.2-3.1-0.2-6.2-1.2-9.1l-2.8,1C123.6,395.9,123.9,398.7,123.7,401.5z
			 M106.7,917c1,7.2-1,13.4-3.1,19.9l2.8,1c2.2-6.6,4.4-13.3,3.3-21.3L106.7,917z M46.1,82.9c0.3-4.7,0.5-8.3-0.8-10.3l-2.5,1.7
			c0.8,1.2,0.5,5.1,0.3,8.5c-0.3,4.6-0.6,9.7,0.6,13.9l2.9-0.8C45.5,92.1,45.8,87.2,46.1,82.9L46.1,82.9z M112.4,954.3
			c-5.4,28.6-11.1,58.2-11.1,87.8c-1.1,3.8-1.1,7.8,0.1,11.5l2.8-1c-1-3.2-1-6.6,0-9.9l0.1-0.2v-0.2c0-29.5,5.6-59,11-87.5l1.4-7.3
			c4.3-23.1,7.1-46.5,8.3-70c2.7-47.3,0.2-95.3-2.2-141.7c-2-39.8-4.2-81-3-121.5c1.2-44.1,6.7-88.7,12-131.8
			c7.5-61.6,15.3-125.2,11-188.6c-4.9-70.7-20.4-140.9-35.5-208.8l-1.4-6.3c-5-22.4-4.8-43.4-4.7-65.6c0-3.8,0-7.6,0-11.4h-3
			c0,3.9,0,7.7,0,11.4s0,7.3,0,11c0,18.4,0.6,36.2,4.8,55.3l1.4,6.3c15,67.8,30.6,137.8,35.4,208.3c4.4,63-3.4,126.6-10.9,188
			c-5.3,43.2-10.8,87.9-12,132.1c-1.1,40.6,1,81.8,3,121.7c2.4,46.3,4.8,94.3,2.2,141.4c-1.2,23.3-3.9,46.6-8.2,69.6L112.4,954.3z
			 M46.8,39.6c-0.4,2.3-1,4.8-1.7,7.4c-1.3,4.7-2.6,9.5-2.6,14.6h3c0-4.6,1.2-9.3,2.5-13.8c0.7-2.7,1.4-5.2,1.8-7.7L46.8,39.6z
			 M50.1,946.7c-2.2,7.8-2.2,14.4-2.2,22.1h3c0-7.4,0-13.9,2.1-21.3L50.1,946.7z M390.8,320.5l3-0.5c-0.9-5.8-1.4-11.7-1.6-17.7
			c-0.1-6.1-0.7-12.1-1.6-18.1l-3,0.5c0.9,5.8,1.4,11.7,1.6,17.7C389.3,308.5,389.9,314.6,390.8,320.5z M379.1,266.1
			c0,31.4,1.5,67.5,19.4,98.2l2.6-1.6c-17.5-30-19-65.6-19-96.7H379.1z M353.1,90.2c1.1-3.5,1.1-8,1.1-12.4h-3c0,4.1,0,8.4-1,11.4
			L353.1,90.2z M361.7,288.1c1.1-6.6,1.1-13.2,1.1-20.8h-3c0,7.5,0,13.9-1,20.3L361.7,288.1z M378.4,242.4c-0.3-0.3-0.5-0.6-0.7-0.9
			c-0.5-1-1.4-1.7-2.5-1.7c-0.8,0-1.5,0.7-1.5,1.5l0,0l0,0c0,0.8,0.6,1.4,1.3,1.5l0.2,0.3c0.3,0.5,0.7,1,1.1,1.5
			c0.6,0.6,1.5,0.6,2.1,0.1C379,244,379,243,378.4,242.4C378.5,242.4,378.4,242.4,378.4,242.4L378.4,242.4z M384.8,251.5h1
			c0.8,0,1.5-0.7,1.5-1.5s-0.7-1.5-1.5-1.5h-1.1c-0.8,0-1.5,0.7-1.5,1.5S384,251.5,384.8,251.5L384.8,251.5z M368.3,284.4
			c-0.4,6.2-0.8,12.1,0.1,16.6c2.3,16.2,6.7,33.3,11.9,45.8l2.8-1.2c-5-12.3-9.4-29.1-11.7-45.2c-0.8-4.2-0.5-9.9-0.1-15.9
			c0.6-8.9,1.2-18-2.2-23.6l-2.5,1.6C369.4,267.3,368.8,276,368.3,284.4L368.3,284.4z M348.3,310.9c-0.8,6.4-1.2,12.7-1.3,19.1h3
			c0-5.9,0.6-12.2,1.3-18.9c1.3-12.5,2.6-25.5-0.3-37.8l-2.9,0.7C350.8,285.8,349.6,298.5,348.3,310.9L348.3,310.9z M358.7,308.4h3
			c0-1.1,0-1.6,0.6-2.2l-2.1-2.2C359.2,305.2,358.6,306.8,358.7,308.4L358.7,308.4z M363,23.7c0.3,7.2,0.5,14.6,1.1,21.7
			c0.5,6.1,1.5,12.4,2.5,18.5c1.4,8.2,2.8,16.7,2.8,24.7h3c0-8.2-1.4-16.9-2.8-25.2c-1-6.1-2.1-12.3-2.5-18.2
			c-0.5-7-0.8-14.4-1.1-21.6s-0.5-14.6-1-21.7l-3,0.2C362.5,9.1,362.8,16.5,363,23.7z M354.6,126.9c0.4-3.7,0.7-7.5,0.7-11.3h-3
			c0,3.7-0.3,7.3-0.7,11c-0.4,3.5-0.6,7-0.7,10.5c0,1.9,0.1,3.9,0.3,5.8l3-0.3C353.8,137.4,354,132.1,354.6,126.9L354.6,126.9z
			 M366.6,245.6c3.8,4,7.4,8.3,10.6,12.8l2.4-1.8c-3.3-4.7-6.9-9.1-10.8-13.2L366.6,245.6z M379,34.4h3c-0.1-4.8-0.7-9.5-1.7-14.2
			c-1-5.8-2.1-11.7-1.5-18.2l-3-0.3c-0.1,1.4-0.2,2.7-0.2,4.1c0.1,5,0.7,10.1,1.8,15C378.4,25.3,378.9,29.8,379,34.4z M409.6,413.9
			c-7.1-18.7-15.2-39.9-24.6-55.4l-2.6,1.6c9.3,15.4,17.3,36.4,24.4,55c1.9,4.9,3.7,9.6,5.4,14.1l2.8-1.1
			C413.3,423.5,411.5,418.9,409.6,413.9L409.6,413.9z M357.9,160.4c-0.6,1.3-1,2.7-1.2,4.2c-0.2,1.2-0.5,2.3-0.9,3.4l2.7,1.4
			c0.6-1.3,1-2.7,1.2-4.2c0.2-1.2,0.5-2.3,0.9-3.4L357.9,160.4z M411,375.9c-0.4-2.9-0.8-5.7-1.2-8.3
			c-11.8-60.9-15-122.9-18.1-182.7l-3,0.2c3.1,60,6.3,122,18.2,183.1c0.4,2.5,0.8,5.3,1.2,8.2c1.8,13,4.1,29.2,8.5,40.8l2.8-1.1
			C415,404.7,412.8,388.7,411,375.9z M365.2,170c1,9.2,1.1,23.4-1,34.2l2.9,0.6c2.3-11.9,2-26.4,1.1-35.1L365.2,170z M363.9,143.9
			C365,126.5,365,110,365,94h-3c0,15.9,0,32.4-1.1,49.7L363.9,143.9z M17.8,474.1l0.2-3.9c3.2-62.3,6.9-132.9-9.9-192.6l-2.9,0.8
			c16.7,59.1,13,129.5,9.8,191.5l-0.2,3.9c-1,15.5-2.8,30.1-4.7,45.6l-0.6,5.2l3,0.4l0.6-5.2C15,504.4,16.8,489.7,17.8,474.1z
			 M10.3,446.2l-2.9-0.7c-1.1,4.5-1.1,9.2,0,13.7l2.9-0.7C9.3,454.5,9.3,450.2,10.3,446.2z M371.6,801.7l2.9,0.6
			c2-10.2,2.4-21.3,2.8-32.1c0.4-12.2,0.8-24.7,3.7-36.2c3.2-17.3,8.5-34.6,13.8-50.7l-2.9-1c-5.3,16.2-10.7,33.6-13.9,51
			c-2.9,11.7-3.3,24.4-3.7,36.7C374,780.8,373.6,791.8,371.6,801.7z M8.4,576.1c-0.2-11.1-0.4-22.7,0.9-32.6l-3-0.4
			c-1.2,10.1-1.1,21.7-0.9,33c0.1,8.2,0.2,15.9-0.2,22.3l3,0.2C8.6,592.1,8.5,584.3,8.4,576.1z M88.7,117.3
			c1.3,7.9,2.6,15.4,3.8,22.9c17.7,116.5,21.8,240,12.3,367.1c-4.4,58.2-2.3,117.3-0.3,174.6c2.4,67.5,4.8,137.2-3.3,205.5
			c-1.9,15.6-4.2,31.5-6.4,46.9c-1.9,13-3.9,26.4-5.6,39.6c-0.6,4.7-1.3,9.5-2.1,14.5c-3.1,20.2-6.7,43-0.6,62l2.8-0.9
			c-5.9-18.3-2.4-40.8,0.7-60.6c0.8-5.1,1.5-9.9,2.1-14.6c1.7-13.2,3.7-26.6,5.6-39.5c2.3-15.4,4.6-31.2,6.5-46.9
			c8.2-68.6,5.7-138.4,3.3-206c-2-57.1-4.1-116.2,0.2-174.2c9.6-127.3,5.4-251.1-12.3-367.8c-1.1-7.5-2.4-15-3.8-22.9
			C84.8,76.9,77.8,35.6,89.3-1.9l-2.9-0.9c-4.5,14.8-6.2,30.1-6.2,45.7C80.2,67.5,84.5,92.7,88.7,117.3z M68.2,2v1h3V2H68.2z
			 M8.8,852.9l-2.1,2.1l1.1,1.1l2.1-2.1L8.8,852.9z M11.4,338.5l-3,0.5c1.3,8.4,0.2,20.1-0.8,31.4c-0.7,7.4-1.3,14.4-1.3,20.3h3
			c0-5.8,0.6-12.7,1.3-20C11.6,359.1,12.7,347.2,11.4,338.5z M14,829.8v-0.3c-1.9-21.9-2.5-43.8-1.9-65.8c0.3-9.5,0.7-19.3,1.1-28.6
			c1.7-38.7,3.4-78.7-5-117.3l-2.9,0.7c8.4,38.3,6.6,78,4.9,116.5c-0.4,9.4-0.8,19.1-1.1,28.7c-0.6,22.1,0,44.1,1.9,66.1v0.3
			c1.8,21,3.6,42.8-7.7,61.1l2.5,1.6C17.6,873.6,15.8,851.3,14,829.8z M56.6,782.9c0.9-28.4-0.3-57.1-1.5-85
			c-0.9-22.7-1.9-46.2-1.8-69.3c0.2-38.5,2-77.7,3.6-115.5c2.6-58.5,5.2-118.9,2.5-178.5C57,278.9,46.8,225.3,36.1,175.7
			c-5-23.2-10.9-53.9-12.6-85.7c-0.8-14.4-0.5-28.8,0.8-43.1c0.5-5.9,2.1-12.3,3.6-18.6c1.9-7.8,3.8-15.8,3.8-23.1
			c0-0.4,0.1-0.8,0.2-1.1c0.8-1.7,1-2.4,0.4-3.1l-0.7-0.8l-1,0.4c-0.7,0.3-1.2,1.3-1.5,2.4l-0.2,0.5l0.1,0.1
			c-0.1,0.6-0.2,1.1-0.3,1.7c0,6.9-1.9,14.7-3.7,22.3c-1.5,6.4-3.1,13-3.6,19.1C20.4,55.7,20,64.8,20,74c0,5.4,0.1,10.8,0.4,16.1
			c1.7,32,7.7,62.8,12.7,86.2c10.7,49.5,20.9,103,23.4,158.4c2.7,59.4,0,119.8-2.5,178.2c-1.7,37.9-3.4,77-3.6,115.6
			c-0.2,23.2,0.8,46.7,1.8,69.5c1.2,27.8,2.3,56.5,1.5,84.8c-1.3,44-8.3,88.2-15,131c-7.5,47.6-15.2,96.9-15.2,145.9h3
			c0-48.9,7.7-98,15.2-145.5C48.3,871.4,55.3,827,56.6,782.9L56.6,782.9z M14.3,1045.6c0.1-1.3,0.2-2.7,0.2-4.2l0,0
			c1.6-41.5,9.4-82.9,17-123.1C40.7,870,50.2,820,48.8,769.5c-0.5-19.6-2.4-39.4-4.2-58.6c-2.7-29.1-5.5-59.1-3.8-88.8
			c1-17.6,2.2-35.4,3.3-52.7c0.6-9.4,1.2-18.8,1.8-28.2l0.8-12.6c5.3-84.5,10.9-171.9-6.4-255.6c-2.1-10.3-4.4-20.8-6.6-31
			c-10.8-50.3-22-102.4-23.2-155c-0.4-15.5,2.8-30.6,5.8-45.1c2.9-13.7,5.8-27.9,5.8-42.3h-3c0,14.1-2.9,28.1-5.8,41.6
			c-2.9,13.9-5.9,28.4-5.9,43.2c0,0.9,0,1.7,0,2.6c1.3,52.9,12.5,105.1,23.3,155.5c2.2,10.1,4.4,20.6,6.6,30.9
			c17.2,83.3,11.7,170.5,6.4,254.8l-0.8,12.6c-0.6,9.4-1.2,18.8-1.8,28.1c-1.1,17.2-2.3,35.1-3.3,52.7c-1.7,29.9,1.1,60,3.8,89.2
			c1.8,19.1,3.6,38.9,4.2,58.4c1.4,50.1-8,99.9-17.1,148.1C21,958,13.2,999.6,11.6,1041.3c0,1.4-0.1,2.7-0.2,4.1
			c-0.4,2.7-0.3,5.5,0.3,8.3l2.9-0.7C14,1050.5,14,1048,14.3,1045.6z M39.6,992.3c0.9-26.2,6.8-52.2,12.4-77.3
			c3.2-14.2,6.5-29,8.9-43.6c6.3-38.7,7.8-79.2,4.7-123.9c-5-72.7-5-145.6,0-218.2l0.1-1.4c2-28.8,4-58.6,5.2-88
			c2.6-61.4,0.9-111.1-5.1-156.4c-3.3-24.9-8-49.9-12.6-74.2c-4.7-25-9.5-50.9-12.9-76.5C34.4,88,30.5,40.9,51.8,2.7l-2.6-1.5
			C36.6,23.7,32.6,49,32.6,75.2c0,19.3,2.2,38.9,4.7,58.2C40.7,159,45.5,185,50.2,210c4.5,24.2,9.2,49.2,12.5,74
			c6,45.1,7.7,94.6,5.1,155.9c-1.2,29.3-3.3,59.1-5.2,87.9l-0.1,1.4c-5,72.8-5,145.9,0,218.7c3.1,44.4,1.6,84.7-4.7,123.1
			c-2.4,14.6-5.7,29.2-8.8,43.4c-5.7,25.2-11.5,51.3-12.5,77.8c-0.9,25.8,2.9,49.1,11.4,69.2l2.8-1.2
			C42.5,1040.5,38.7,1017.7,39.6,992.3z M486.7,1062.6c-1.3-6.3-2-12.7-2.1-19.1c0-0.1,0-0.1,0-0.2c-11-76.4-13.1-155.6-6.4-242.2
			c4.2-64.7,9.5-133.8,20.3-200.1c10.7-66.1,8.6-132.1,5.4-199.6c-1.4-17.3-3.7-34.5-5.9-51.1c-3.1-22.8-6.3-46.3-6.9-70.1
			c-0.7-23-2.5-46.2-4.2-68.6c-0.8-10.2-1.6-20.8-2.2-31.1c-4-57.1-5.4-116.5-4.3-181.7c0-0.8-0.6-1.5-1.5-1.6
			c-0.8,0-1.5,0.6-1.5,1.5c0,0,0,0,0,0c-1.1,65.3,0.2,124.9,4.3,182c0.7,10.3,1.5,20.8,2.2,31.1c1.7,22.4,3.4,45.5,4.2,68.5
			c0.6,23.9,3.8,47.5,6.9,70.4c2.2,16.6,4.6,33.7,5.9,50.9c3.3,67.3,5.3,133.1-5.3,198.9c-10.8,66.5-16.1,135.6-20.3,200.4
			c-2.6,33-3.9,65-3.9,96.2c-0.1,49,3.3,98,10.3,146.6c0.1,6.6,0.8,13.3,2.2,19.7c0.2,0.8,1,1.3,1.8,1.1
			C486.4,1064.2,486.9,1063.4,486.7,1062.6L486.7,1062.6z M23.5,892.5c6.2-28.4,12.7-57.8,14.3-87.7c2.5-45.8-0.1-92.8-2.5-138.1
			c-2.6-48.7-5.4-99.1-1.8-147.9c1.6-21.6,2.8-43.6,4-64.9c0.6-9.9,1.1-19.8,1.7-29.7c5.3-88.9-11.8-177.1-31-259.2l-2.9,0.7
			c19.2,81.8,36.3,169.8,31,258.3c-0.6,9.9-1.2,19.8-1.7,29.7c-1.2,21.3-2.5,43.2-4,64.8c-3.6,49-0.8,99.5,1.8,148.3
			c2.5,45.3,5,92.1,2.5,137.8c-1.6,29.6-8,58.9-14.2,87.2c-2.6,12.1-5.4,24.5-7.7,36.9c-5.2,27.6-7.7,50.3-7.7,71.4h3
			c0-20.9,2.4-43.4,7.6-70.9C18.1,917,20.8,904.6,23.5,892.5z M16.7,766.3h-3v8.7h3V766.3z M77.6,192.2l-2.9,0.7
			c0.4,1.9,0.8,3.8,1,5.8c0.3,2,0.6,4.1,1.1,6.1l2.9-0.7c-0.4-1.9-0.8-3.9-1-5.8C78.4,196.2,78,194.2,77.6,192.2z M25.2,805.2
			c1.1-40.2-0.6-81-2.2-120.5c-1.9-46.6-3.9-94.9-1.3-142.3c0.9-15.5,1.9-31.2,3-46.5c3.5-51.4,7.2-104.5,2.7-156.8
			C24,297.7,16.7,255.9,9.6,215.5c-0.8-4.9-1.7-9.7-2.5-14.6l-3,0.5c0.8,4.9,1.7,9.7,2.5,14.5c7,40.4,14.3,82.1,17.8,123.4
			c4.5,52.1,0.8,105.1-2.7,156.3c-1,15.2-2.1,31-3,46.5c-2.6,47.6-0.6,95.9,1.3,142.6c1.6,39.4,3.3,80.2,2.2,120.2l-0.1,3.7
			C21,851.5,19.7,899.9,0,937.7l2.7,1.4c20-38.4,21.3-87.2,22.5-130.3L25.2,805.2z M133.4,167.9c1.1,5.7,2.2,10.1,4.4,14.5l2.7-1.4
			c-2-4.1-3-8.1-4.1-13.7L133.4,167.9z M141.9,454.1c-4.7,38.1-9.5,77.6-12.3,116.5c-3.6,50.9,0.9,102.6,5.3,152.5
			c3.1,35.2,6.2,71.7,6.5,107.5c0.3,38.4-3.2,76.8-10.3,114.5c-1.3,7-2.6,13.9-4,20.9c-5.4,28.4-11.1,57.8-14.1,87.2l3,0.3
			c3-29.2,8.7-58.6,14.1-86.9c1.3-7,2.7-13.9,4-20.9c7.1-37.9,10.6-76.5,10.3-115.1c-0.3-36-3.5-72.5-6.6-107.8
			c-4.3-49.8-8.8-101.3-5.3-152c2.7-38.8,7.6-78.2,12.2-116.3c8.8-71.1,17.8-144.6,13.4-217.6c-2.3-36.5-9.9-74.6-24.3-119.8
			c-2.6-8.3-5.7-16.8-8.7-25.1C115,63.3,104.4,33.8,107.5,3.2l-3-0.3c-0.4,3.7-0.5,7.5-0.5,11.2c0,27.2,9.4,53.4,18.5,78.8
			c2.9,8.2,6,16.7,8.6,25c14.3,45,21.9,82.8,24.1,119.1C159.7,309.7,150.6,383.1,141.9,454.1L141.9,454.1z M156.6,97.3h-3v4.3h3
			V97.3z M139.8,199c0,1.9,0.7,2.6,2.6,2.6V199H139.8z M82.9,221l-2.9-0.7c-0.5,2.2-0.8,4.5-0.8,6.7c0,2.1,0.3,4.1,0.9,6.1l2.8-1
			C81.9,228.5,81.9,224.7,82.9,221z M122.5,1.8l-3,0.3c3.5,31.7,12.7,62.5,21.6,92.2c6.5,21.7,13.2,44.2,17.7,66.9
			c9.6,49.2,11.5,102.5,5.9,167.8c-2.8,32.2-7,63.7-11.5,95.9c-12.3,87.8-13.7,176.9-4.3,280.3c7.8,86.5,13,179.4-2.3,273.3
			c-3.8,23.6-8.8,49-15.2,77.6l2.9,0.7c6.4-28.6,11.4-54,15.3-77.7c15.3-94.3,10.1-187.4,2.3-274.1c-9.3-103.2-8-192,4.3-279.6
			c4.5-32.2,8.8-63.7,11.6-96c5.6-65.6,3.8-119.2-5.9-168.6c-4.5-22.8-11.2-45.4-17.8-67.2C135.1,63.9,125.9,33.3,122.5,1.8z
			 M110,180.1c8.6,22.9,12.7,59.5,11.7,81.7l3,0.1c1.1-22.4-3.1-59.6-11.8-82.9L110,180.1z M96.8,78.4l-2.8,1c0.5,2.4,0.9,4.9,1,7.4
			c0.4,4.8,1,10.7,2.2,15.2l2.9-0.8c-1.2-4.2-1.7-10-2.1-14.7C97.7,83.7,97.4,81,96.8,78.4z M101.3,115.6c0,4.4,0,7.8,1.2,11.3
			l2.8-1c-1-3-1-6.1-1-10.3L101.3,115.6z M142.8,199h-0.2c0.1,0.1,0.2,0.3,0.2,0.5C142.8,199.4,142.8,199.2,142.8,199L142.8,199z
			 M141.6,972.5c0.9-3.3,1.3-6.8,1.1-10.2h-3c0,3.2,0,6.3-1,9.3L141.6,972.5z M136.4,991.5h-3c0,3.1,0,10.5-2,14.5l2.7,1.4
			C136.4,1002.7,136.4,994.9,136.4,991.5L136.4,991.5z M73.6,987.3c1.5-8.7,3-17.6,4.5-26.1c5.9-33.5,12-68.2,14-103.4
			c2.5-43.3,2-86.3,0.5-137.5c-0.4-14.2-0.9-28.4-1.4-42.2c-0.6-18.3-1.3-37.2-1.8-55.8c-1.1-43.6,0.7-88,4.8-125.1
			c2.6-22.9,2.6-46.2,2.6-68.7c0-5.2,0-10.3,0-15.5c0.1-16.6,0.7-33.6,1.2-50c1-28.3,2-57.5,0.5-86.3c-1.4-26.9-6-53.8-10.5-79.9
			c-3.1-18-6.3-36.7-8.4-55.1c-5.3-46-6.3-92.4-3.1-138.5l-3-0.2c-3.2,46.4-2.1,92.9,3.2,139.1c2.1,18.5,5.3,37.2,8.4,55.3
			c4.5,26,9.1,52.8,10.5,79.5c1.5,28.6,0.5,57.8-0.5,86c-0.6,16.4-1.2,33.4-1.3,50c0,5.2,0,10.3,0,15.5c0,22.4,0,45.6-2.6,68.4
			c-4.2,37.2-5.9,81.8-4.9,125.5c0.5,18.7,1.2,37.6,1.8,55.9c0.5,13.7,1,28,1.4,42.1c1.5,51.1,2,94.1-0.5,137.2
			c-2.1,35.1-7.8,68.1-14,103.1c-1.5,8.5-3,17.4-4.5,26.1c-1.5,8.3-2.2,16.8-2.3,25.2c0,16.6,3.6,30.3,10.8,42l2.5-1.6
			C71.4,1035.9,68.9,1015.2,73.6,987.3L73.6,987.3z M76.7,583.3h3c0-3.4,0-5.8-1.2-8.3l-2.7,1.4C76.7,578.3,76.7,580.2,76.7,583.3
			L76.7,583.3z M124.9,69.6l2.8-1c-0.5-1.7-0.8-3.4-1-5.1c-0.2-1.9-0.6-3.8-1.1-5.7l-2.8,1c0.5,1.7,0.8,3.4,1,5.1
			C124,65.8,124.4,67.7,124.9,69.6z M122.7,281.3V304h3v-22.7L122.7,281.3z M122.4,121.8l-2.9,0.7c1.5,7,4.2,13.4,6.7,19.7
			c1.1,2.6,2.1,5.1,3,7.6l2.8-1.1c-0.9-2.6-2-5.2-3-7.7C126.5,134.9,123.9,128.6,122.4,121.8L122.4,121.8z M142.3,198.8v-0.2
			c-0.2,0-0.3,0-0.4,0C142,198.6,142.2,198.7,142.3,198.8L142.3,198.8z M10.2,408.6l-2.9,0.8c2,7.1,1.1,14.2,0,21l3,0.5
			C11.4,423.9,12.4,416.3,10.2,408.6z M384.2,46.4h-3c0,19-1.3,38.5-2.5,57.4c-1.2,19.1-2.5,38.5-2.5,58
			c-0.1,15.1,0.9,30.2,2.9,45.1c2,10.4,4.2,22.4,4.2,33.3h3c0-11.1-2.2-23.3-4.3-33.8c-4.8-33.8-2.5-68.7-0.3-102.4
			C382.9,85,384.2,65.5,384.2,46.4z M367.1,326.6c-0.1-0.8-0.8-1.4-1.7-1.4s-1.4,0.8-1.3,1.7c2.5,24.3,13.4,46.7,24,68.4
			c8,16.4,16.3,33.3,20.9,50.9c8.5,30.4,3.1,80.5-18.3,106.6c-11.1,13.5-25.2,19.6-42.1,18.1c-33.6-2.6-44.2-40.4-46.7-51.9
			c-0.2-0.8-1-1.3-1.8-1.1c-0.8,0.2-1.3,1-1.1,1.8c2.6,12,13.8,51.5,49.4,54.2c17.9,1.6,32.9-4.8,44.7-19.2
			c22-26.9,27.5-78.3,18.9-109.4c-4.6-17.9-13-35-21.1-51.5C380.3,372.5,369.5,350.3,367.1,326.6z M392.7,173c0-6.7,0-14.2-1.1-20.8
			l-3,0.5c1,6.4,1,13.8,1,20.3L392.7,173z M422.9,466.4h3c0-4.8-1.5-10.7-3-16.4c-1.2-4.6-2.3-8.9-2.3-11.8h-3
			c0,3.2,1.2,7.7,2.4,12.5C421.4,456.3,422.9,462,422.9,466.4L422.9,466.4z M298.6,17.7c-0.3-0.8-1.2-1.1-2-0.8
			c-0.7,0.3-1,1.1-0.8,1.8c4.3,12,8.4,24.7,7.4,37.2c-0.1,0.8,0.5,1.6,1.4,1.6s1.6-0.6,1.6-1.4C307.3,43.1,303.1,30,298.6,17.7z
			 M310.3,165.1c0.3-0.8,0-1.7-0.8-2c-0.7-0.3-1.5,0-1.9,0.6c-1,1.9-1.4,4-1.2,6.1c0,0.8,0.7,1.5,1.5,1.5s1.5-0.7,1.5-1.5
			C309.2,168.1,309.6,166.5,310.3,165.1z M311.4,128.2c0.4-0.7,0.2-1.7-0.6-2.1c-0.7-0.4-1.6-0.2-2,0.6c0,0,0,0.1-0.1,0.1
			c-1.1,2.3-2.3,4.7-2.3,7.2c0,0.8,0.7,1.5,1.5,1.5s1.5-0.7,1.5-1.5C309.4,132.2,310.4,130.3,311.4,128.2L311.4,128.2z M390.7,638.9
			c11.7-4.7,19.2-17.8,21.3-37c0.7-5.5,1-11.1,0.9-16.7c0.1-10.1,0.3-19.6,4.3-28.4l-2.7-1.3c-4.2,9.3-4.4,19.6-4.5,29.6
			c0,5.5-0.3,10.9-0.9,16.4c-1.9,18-8.8,30.2-19.4,34.5c-11.2,4.5-25.4,0-40-12.7c-7.1-6.7-13.6-18.4-19.3-28.7
			c-5.5-9.9-10.2-18.5-15-22.3l-1.8,2.4c4.3,3.4,9.1,12.2,14.2,21.3c5.8,10.5,12.4,22.4,19.9,29.5
			C363.1,639.1,378.4,643.8,390.7,638.9z M368.8,592.7v3c10,0,22.3-3.3,25.9-10.6l-2.7-1.4C389.2,589.5,377.9,592.7,368.8,592.7z
			 M395.5,607.2l-2.1-2.1l-3.2,3.3l2.1,2.1L395.5,607.2z M352.3,600.9c0,0.6,0.2,1.3,0.6,1.8c3.2,4.6,22.8,12.5,30.8,12.5v-3
			c-8.1,0-27.4-8.7-28.5-11.4c0,0.1,0,0.3,0,0.4l-2.9-1C352.4,600.4,352.3,600.7,352.3,600.9z M374.3,599.2l-0.4,3l0.5,0.1
			c8.4,1.1,16.4,2.1,23.2-4.8l-2.1-2.1c-5.8,5.9-12.4,5-20.7,4L374.3,599.2z M287.2,377.4c0.8-4.1,1.5-8.3,1.9-12.6
			c0.1-0.8-0.5-1.6-1.4-1.7s-1.6,0.5-1.6,1.4l0,0c-0.4,4.2-1.1,8.1-1.9,12.3c-1.2,6.4-2.4,12.9-2.4,20.3c0,0.8,0.7,1.5,1.5,1.5
			s1.5-0.7,1.5-1.5C284.8,390.1,286,383.6,287.2,377.4z M360.6,620.4c8.6,5,24.9,11.2,30.8,2.8l-2.4-1.8c-4.4,6.2-18.5,1.2-26.9-3.7
			L360.6,620.4z M403.6,581.7c-0.1-3.2-0.2-6.2-0.2-9.1h-3c0,3,0.1,6.2,0.2,9.2c0.3,12.5,0.7,25.5-4.3,35.6l2.7,1.4
			C404.3,607.9,403.9,594.6,403.6,581.7L403.6,581.7z M296.5,549.3l-2.8,1c1.5,4,2.9,8.1,4.3,12.2c6,17.2,12.1,35.1,22.6,50.9
			l2.5-1.7c-10.2-15.5-16.3-33.2-22.2-50.2C299.4,557.4,298,553.3,296.5,549.3z M329.7,620.2h-3c0.4,2.9,1.6,5.5,3.6,7.6l2.1-2.1
			C331,624.1,330.1,622.2,329.7,620.2L329.7,620.2z M379.7,1039.8c2.6,0.3,5.3,3.6,8.1,9.8l2.7-1.2c-3.3-7.5-6.6-11.1-10.5-11.6
			c-5.8-0.6-10.9,6.5-16.3,14.1l-0.3,0.4l2.4,1.8l0.3-0.4C370.8,1046,375.6,1039.3,379.7,1039.8L379.7,1039.8z M342.1,665.6
			c-0.6,0.6-0.6,1.6,0,2.1c6.3,6.5,14.4,11.2,23.1,13.4c0.8,0.2,1.6-0.3,1.8-1.1c0.2-0.8-0.3-1.6-1.1-1.8
			c-8.3-2.1-15.8-6.4-21.7-12.6C343.6,665,342.7,665,342.1,665.6z M402.5,902c0.8-0.3,1.1-1.2,0.8-2c0,0,0,0,0,0
			c-12.3-27.6-6.2-59.6-0.9-87.9l0.8-4.1c9-48.4,14.4-90.7,16.3-129.2c0-0.8-0.6-1.6-1.4-1.6s-1.5,0.6-1.6,1.4
			c-1.9,38.5-7.2,80.6-16.2,128.8l-0.8,4.1c-3,16.2-6.3,33.7-6.3,50.9c0,13.3,2,26.4,7.5,38.8C400.9,902,401.8,902.3,402.5,902
			C402.5,902,402.5,902,402.5,902z M406.4,873.5c0,2.3,0.1,4.5,0.5,6.7l3-0.5c-0.5-4.2-0.6-8.4-0.2-12.7c0.1-2.1,0.2-4.4,0.2-6.6h-3
			c0,2.1-0.1,4.3-0.2,6.4C406.5,869,406.4,871.3,406.4,873.5L406.4,873.5z M407.3,899.5v-2.6c-1.4,0-2.5,1.1-2.6,2.5
			c0,0,0,0.1,0,0.1L407.3,899.5z M413,813.9h-3c0,7.9-1.1,23.9-3.2,32.1l2.9,0.7C412.1,837.5,413,820.8,413,813.9z M360.4,798
			c0.2,11.7,0.5,23.7,2.6,34.7l3-0.6c-2.1-10.7-2.4-22.6-2.6-34.1c-0.1-5.8-0.2-11.8-0.6-17.6l-3,0.2
			C360.2,786.2,360.3,792.2,360.4,798L360.4,798z M406.8,699.4c1.2,7.2,0,14.5-1.3,22.1c-1.1,5.8-1.8,11.7-1.9,17.7
			c0,0.8,0.7,1.5,1.5,1.5s1.5-0.7,1.5-1.5c0.2-5.8,0.8-11.5,1.9-17.2c1.3-7.9,2.6-15.4,1.3-23.1c-0.1-0.8-0.9-1.4-1.7-1.3
			S406.6,698.6,406.8,699.4L406.8,699.4z M401,757.7c-0.4,1-0.6,2.1-0.6,3.2c0,0.8,0.7,1.5,1.5,1.5s1.5-0.7,1.5-1.5
			c0-0.8,0.2-1.5,0.5-2.2c0.4-1,0.6-2.1,0.6-3.2c0-0.8-0.7-1.5-1.5-1.5s-1.5,0.7-1.5,1.5C401.4,756.2,401.3,757,401,757.7z
			 M396.1,1037.6c2.3,4.9,4.6,10,8,13.4l2.1-2.1c-3-3-5.1-7.6-7.4-12.5c-4.6-10-9.9-21.4-23.9-18.2c-9.9,2.2-18.3,21.2-22.4,32.3
			l2.8,1.1c6.5-17.7,14.1-29.1,20.3-30.4C387.3,1018.5,391.5,1027.8,396.1,1037.6L396.1,1037.6z M332.1,653.4
			c-3.5-1.8-6.8-3.8-7.8-6.7c-0.3-0.8-1.1-1.2-1.9-1c-0.8,0.3-1.2,1.1-0.9,1.9l0,0c1.2,3.7,4.6,6.1,9.3,8.5c0.7,0.4,1.6,0.2,2-0.6
			c0.4-0.7,0.2-1.7-0.6-2.1C332.1,653.5,332.1,653.5,332.1,653.4L332.1,653.4z M396.4-4.9c-0.8,0.1-1.4,0.8-1.3,1.7
			c4.3,41,3.2,83.1,2.1,123.8s-2.1,82.9,2.1,124.2c3.7,34.9,9.8,69.8,15.7,103.5c10.8,62.2,22,126.5,18.5,191.8
			c-0.1,1.7-0.2,3.5-0.3,5.4c-2.1,37.3-5.7,99.7-40.5,117.9c-8.8,4.6-19.1,5.2-28.4,1.7c-26-9.2-51-46.8-65.7-79
			c-25.1-54.8-16.7-116.7-6-175.3c11.9-65.1,19.5-125.5,23.2-184.8c2.1-32.8,3.5-68.3,4.5-111.8c0.7-32-0.4-60.2-3.5-86.1l-3.2-29.2
			c-0.1-0.8-0.8-1.4-1.7-1.4c-0.8,0.1-1.4,0.8-1.3,1.7l3.2,29.2c3,25.9,4.2,53.9,3.4,85.7c-1,43.5-2.4,79-4.5,111.7
			c-3.7,59.2-11.3,119.5-23.2,184.5c-5.6,30.5-10.5,61.8-10.5,92.7c0,29,4.4,57.6,16.7,84.5c7.3,15.9,33.6,68.6,67.5,80.6
			c10,3.8,21.2,3.1,30.7-1.9c36.4-19,40-82.5,42.2-120.4c0.1-1.9,0.2-3.6,0.3-5.4c3.5-65.7-7.7-130.2-18.5-192.6
			c-5.9-33.7-11.9-68.5-15.6-103.3c-4.3-41-3.2-83.1-2.1-123.8s2.1-82.9-2.1-124.2C398-4.5,397.2-5.1,396.4-4.9z M323.5,679.7
			c0,0.1,0,0.3,0.1,0.4c1.1,3.8,2.2,7.4,3.2,10.9s2.1,7,3.2,10.8c0.2,0.8,1,1.3,1.8,1.2c0.8-0.2,1.3-1,1.1-1.8c0-0.1,0-0.1,0-0.2
			c-1.1-3.8-2.2-7.4-3.2-10.9c-1-3.5-2.1-7-3.2-10.8c-0.2-0.8-1.1-1.3-1.9-1C323.9,678.4,323.5,679,323.5,679.7L323.5,679.7z
			 M275.2,435c0-0.8-0.7-1.5-1.5-1.5s-1.5,0.7-1.5,1.5v4.3c0,0.8,0.7,1.5,1.5,1.5s1.5-0.7,1.5-1.5V435z M273.7,481.6l-1.1-1.1
			c-0.6-0.6-1.5-0.6-2.1-0.1c-0.6,0.6-0.6,1.5-0.1,2.1c0,0,0,0.1,0.1,0.1l1.1,1.1c0.6,0.6,1.5,0.6,2.1,0.1S274.4,482.3,273.7,481.6
			C273.8,481.6,273.7,481.6,273.7,481.6z M337.9,1007.9c-5.6,11.6-11.5,23.5-11.5,36.4c0,3.5,0.4,7,1.3,10.4c0.2,0.8,1.1,1.3,1.9,1
			c0.8-0.2,1.2-1,1-1.8c-4.1-15.9,3-30.5,9.9-44.7c1.8-3.7,3.5-7.1,5-10.6c6.3-13.8,8.8-28.9,11.2-43.6c2.6-15.8,5.3-32.2,12.8-46.8
			c3-5.9,6.1-8.7,9.1-8.3c9.6,1.3,19.9,31.8,25.7,57.6c0.6,2.7,1.5,5.7,2.4,8.9c2.3,8,4.9,17.1,4.3,23.9c-0.1,0.8,0.5,1.6,1.4,1.7
			c0.8,0.1,1.6-0.5,1.6-1.4c0.7-7.4-2-16.7-4.4-25c-0.9-3.1-1.7-6.1-2.3-8.7c-3.1-13.6-14.2-58.1-28.3-59.9
			c-4.4-0.6-8.5,2.8-12.2,9.9c-7.8,15-10.5,31.7-13.1,47.8c-2.4,14.4-4.8,29.4-11,42.8C341.4,1000.8,339.7,1004.2,337.9,1007.9z
			 M280.6,410.1c0-0.8-0.7-1.5-1.5-1.5s-1.5,0.7-1.5,1.5v7.6c0,0.8,0.7,1.5,1.5,1.5s1.5-0.7,1.5-1.5V410.1z M353.8,589.8l-2.1,2.1
			c1.7,1.6,4,2.6,6.4,2.6v-3C356.5,591.5,355,590.9,353.8,589.8z M336,482.5c-0.4,0.7-0.6,1.5-0.7,2.3c0,0.8,0.7,1.5,1.5,1.5
			s1.5-0.7,1.5-1.5c0.1-0.3,0.2-0.6,0.4-0.9c0.4-0.7,0.6-1.5,0.7-2.3c0-0.8-0.7-1.5-1.5-1.5s-1.5,0.7-1.5,1.5
			C336.3,481.9,336.1,482.2,336,482.5L336,482.5z M317.1,498.9c0,8.3,3.7,12.8,6.8,15.1c4.6,3.5,11.2,4.5,17.5,2.6
			c14.1-3.1,22.2-11.5,22.7-23.5c0.7-16.5-12.8-35.1-24.3-38.7c-5.4-1.7-10,0-12.9,4.8c-0.4,0.7-0.2,1.7,0.5,2.1
			c0.7,0.4,1.6,0.2,2-0.5c2.2-3.6,5.4-4.7,9.4-3.4c10.3,3.2,22.9,20.7,22.2,35.7c-0.4,10.7-7.5,17.8-20.4,20.7h-0.1
			c-5.4,1.6-11,0.9-14.9-2.1c-3.7-2.8-5.6-7.2-5.6-12.7c0-0.8-0.7-1.5-1.5-1.5S317.1,498,317.1,498.9L317.1,498.9z M364.5,224.8
			c0,3.5,1.1,6.9,3.1,9.7c0.5,0.7,1.5,0.8,2.1,0.3c0.6-0.5,0.8-1.4,0.3-2c-5.1-7.2-1.5-15.6,2.2-22.2c0.4-0.7,0.2-1.6-0.5-2.1
			c-0.7-0.5-1.6-0.2-2.1,0.5c0,0,0,0.1-0.1,0.1C367,213.7,364.5,219.2,364.5,224.8L364.5,224.8z M375.2,459.3c0.8,0,1.5-0.7,1.5-1.5
			c-0.1-2.5-0.6-5-1.6-7.3c-0.2-0.6-0.4-1.2-0.6-1.9c-0.3-0.8-1.1-1.2-1.9-1c-0.8,0.3-1.2,1.1-0.9,1.9l0,0c0.2,0.7,0.5,1.3,0.7,1.9
			c0.8,2,1.3,4.1,1.4,6.2C373.7,458.6,374.4,459.3,375.2,459.3C375.2,459.3,375.2,459.3,375.2,459.3L375.2,459.3z M402.3,475.1
			c0-4.2-0.2-8.4-0.5-12.8c-0.3-4.4-0.6-9.3-0.6-14.2c0-0.8-0.7-1.5-1.5-1.5s-1.5,0.7-1.5,1.5c0,5.1,0.3,9.8,0.6,14.4
			c0.3,4.4,0.5,8.5,0.5,12.6c0,0.8,0.7,1.5,1.5,1.5S402.3,475.9,402.3,475.1L402.3,475.1z M342.2,601c3.9,5.6,7.6,10.9,10.9,12.9
			l1.5-2.6c-2.7-1.7-6.4-6.9-10-12.1c-3-4.2-6-8.6-8.9-11.5l-2.1,2.1C336.7,593.3,339.6,597,342.2,601z M338.2,467.9
			c0.8-0.1,1.4-0.9,1.2-1.8c-0.1-0.8-0.9-1.4-1.7-1.2c0,0-0.1,0-0.1,0c-6.4,1.3-8.6,7.6-10.8,15.2v0.1c-0.6,2.7-0.9,5.4-0.9,8.2
			c0,7.9,3.4,10.2,5.9,10.9c6.2,1.7,14.4-4.8,16.5-11.1c1.8-5.4-0.6-9.8-6.5-12.2c-0.8-0.3-1.6,0.1-1.9,0.9c-0.3,0.8,0.1,1.7,0.8,2
			l0,0c4.5,1.8,6.1,4.6,4.8,8.4c-1.8,5.3-8.7,10.3-12.9,9.2c-3.5-1-4.6-6.6-2.8-15.4C331.9,473.1,333.9,468.8,338.2,467.9
			L338.2,467.9z M391.2,485.9c-0.1-0.8-0.8-1.5-1.6-1.4c-0.8,0.1-1.4,0.8-1.4,1.6c1,13.6-7.4,28.4-15.6,37.9
			c-0.6,0.6-0.5,1.6,0.1,2.1s1.6,0.5,2.1-0.1C383.4,516.2,392.3,500.4,391.2,485.9L391.2,485.9z M377.8,468.5c0-0.8-0.8-1.5-1.6-1.4
			c-0.8,0-1.5,0.8-1.4,1.6c1,19.6-1.6,35.6-17.6,49.7c-0.6,0.6-0.7,1.5-0.1,2.2s1.5,0.7,2.1,0.1
			C377.1,504.8,378.7,486.2,377.8,468.5L377.8,468.5z M352.1,427.1c-0.2-0.8-1-1.3-1.8-1.1c0,0,0,0,0,0c-7.7,1.9-17.2,6.8-26.1,13.2
			c-0.7,0.5-0.9,1.4-0.4,2.1s1.4,0.9,2.1,0.5c0,0,0.1-0.1,0.1-0.1c8.6-6.2,17.8-10.9,25.1-12.7C351.8,428.7,352.3,427.9,352.1,427.1
			C352.1,427.1,352.1,427.1,352.1,427.1z M341.4,524.2c0.8-0.3,1.2-1.1,1-1.9c-0.2-0.7-1-1.2-1.7-1c-11.4,3.2-22.3-1.1-28.2-11.2
			c-9.3-15.8-2.3-46.8,13.7-60.3c7.1-6,18.4-10.6,32.1,1.6c0.6,0.6,1.6,0.5,2.1-0.1c0.6-0.6,0.5-1.6-0.1-2.2
			c-12-10.6-24.8-11.1-36-1.6c-11.9,10-19,28.5-19,44.6c0,7.3,1.5,14.2,4.7,19.6C316.4,522.7,328.8,527.7,341.4,524.2L341.4,524.2z
			 M295.9,508.2c0.4,0.8,1.2,1.1,2,0.7c0.7-0.3,1.1-1.2,0.7-2c-8.5-19.5,1.6-44.8,14.7-60.1c0.6-0.6,0.5-1.6-0.1-2.2
			c-0.6-0.6-1.6-0.5-2.1,0.1c-10.1,11.8-18.6,29.5-18.6,46.3C292.4,497,293.6,502.8,295.9,508.2L295.9,508.2z M351.7,393.3
			c-0.5,0.6-0.7,1.3-0.6,2c0,0.5,0.1,1,0.1,1.5c0.1,0.5,0.1,1,0.1,1.5h3c0-0.6-0.1-1.3-0.2-1.9c-0.1-0.4-0.1-0.8-0.1-1.3
			c0,0.1-0.1,0.2-0.2,0.3v-2.9C353,392.4,352.2,392.7,351.7,393.3L351.7,393.3z M354.5,207.7c0,4.3,0.1,8.8,0.3,13.2
			c0.4,13.5,0.8,27.4-2.4,39.5l2.9,0.8c3.3-12.4,2.9-26.6,2.5-40.3c-0.1-4.6-0.3-8.9-0.3-13.1L354.5,207.7z M310.5,520.4
			c0-0.8-0.8-1.5-1.6-1.4s-1.5,0.8-1.4,1.6c0,0.1,0,0.1,0,0.2c1.1,9.4,6,16.2,14.4,19.7c14.2,5.9,35.1,0.7,45.7-7.9
			c0.7-0.5,0.8-1.4,0.4-2.1c-0.5-0.7-1.4-0.8-2.1-0.4c0,0-0.1,0.1-0.1,0.1c-9.9,8.1-29.5,13-42.7,7.4
			C315.6,534.6,311.4,528.8,310.5,520.4L310.5,520.4z M388.7,408.1c-1.7-4.7-3.6-9.3-5.7-13.9l-2.7,1.4c2.1,4.4,4,9,5.6,13.6
			c0.6,1.6,1.2,3.2,1.8,4.7l2.8-1.1C389.9,411.3,389.3,409.8,388.7,408.1L388.7,408.1z M354,409.9c0.5-0.7,0.3-1.6-0.4-2.1
			c-0.7-0.5-1.6-0.3-2.1,0.4c-2.3,3.5-5.2,6.1-7.8,7c-0.8,0.3-1.2,1.1-1,1.9c0.3,0.8,1.1,1.2,1.9,1C347.9,417,351.4,413.9,354,409.9
			z M372.6,400.4c0,0.8,0.7,1.5,1.5,1.5s1.5-0.7,1.5-1.5c0-0.7-0.2-1.4-0.5-2c-0.3-0.7-0.5-1.5-0.6-2.3c0-0.8-0.7-1.5-1.5-1.5
			s-1.5,0.7-1.5,1.5c0,1.2,0.3,2.4,0.8,3.5C372.5,399.8,372.6,400.1,372.6,400.4L372.6,400.4z M371.3,437.1
			c-0.8-9.9-3.5-19.9-6.1-29.5c-0.9-3.2-1.7-6.5-2.5-9.7c-0.2-0.8-1-1.3-1.8-1.1s-1.3,1-1.1,1.8c0.8,3.3,1.7,6.6,2.5,9.8
			c2.5,9.5,5.2,19.4,6,29c0.1,0.8,0.8,1.5,1.6,1.4C370.8,438.6,371.4,437.9,371.3,437.1L371.3,437.1L371.3,437.1z M317.9,366
			c0.7-3.9,1.2-7.9,1.5-11.9c0.6-6.5,1.1-12.6,3.8-19.3l-2.8-1.1c-2.8,7-3.4,13.7-4,20.1c-0.3,3.9-0.8,7.8-1.5,11.6L317.9,366z
			 M331,293.9l2.9,0.7c1.1-5.2,1.1-10.6,0-15.8l-2.9,0.6C332,284.2,332,289.1,331,293.9z M334,267.2c0-18.3-0.5-36.7-1.1-54.5
			c-0.5-18.2-1.1-36.9-1.1-56h-3c0,19.1,0.5,37.9,1.1,56.1c0.5,17.8,1.1,36.1,1.1,54.4L334,267.2z M400.2,499.1
			c0.1-0.8-0.5-1.6-1.3-1.7c-0.8-0.1-1.6,0.5-1.7,1.3c-2,14.4-12.5,40.3-22.8,46.5c-0.7,0.5-0.9,1.4-0.4,2.1c0.4,0.6,1.3,0.9,2,0.5
			C387.4,540.9,398.1,513.9,400.2,499.1z M422.9,479.4c0,30.2-7.5,68.7-24.2,86.7c-10.2,11.3-25.5,17.4-42.1,16.8
			c-18-0.6-34.9-8.9-45.4-22.2c-12.5-15-17.4-36.4-20-51.3l-3,0.5c2.6,15.2,7.7,37.1,20.6,52.7c11,13.9,28.8,22.7,47.6,23.3
			c17.4,0.6,33.6-5.9,44.4-17.8c17.3-18.5,25-57.9,25-88.7L422.9,479.4z M391.7,656.2c25-8.5,28.3-44.7,30.6-71.1
			c0.4-4.9,0.9-9.6,1.4-13.5c0.8-6.6,1.7-13,2.6-19.3c1.6-11.4,3.2-22.1,3.9-33.9l-3-0.2c-0.7,11.7-2.2,22.4-3.8,33.7
			c-0.9,6.2-1.8,12.6-2.6,19.3c-0.5,4-1,8.7-1.4,13.6c-2.3,25.6-5.4,60.7-28.6,68.5c-18.3,6.2-39.9-7-54-21.3l-2.1,2.1
			C349.4,649.2,372.2,662.8,391.7,656.2z M297.3,446.9c28-32.3,31-80.7,33.6-123.5c0.3-5.2,0.6-10.1,1-14.9l-3-0.2
			c-0.3,4.9-0.6,9.8-1,15c-2.6,42.2-5.5,90.1-32.9,121.6L297.3,446.9z M312.4,322.7c-0.6,2.3-1.1,4.6-1.6,6.9
			c-3.1,13.6-4.2,26.6-5.4,43.6v0.1c0,4.9-1.4,10.1-2.8,15.2s-2.7,10.1-2.7,15c0,0.8,0,1.6,0.1,2.4l3-0.3
			c-0.5-4.9,0.9-10.4,2.5-16.3c1.4-5.3,2.9-10.7,2.9-16c1.2-16.7,2.2-29.6,5.3-43c0.5-2.3,1.1-4.6,1.6-6.9
			c4.9-20.7,10-42.1,9.1-62.8l-3,0.1C322.3,281,317.3,302.2,312.4,322.7L312.4,322.7z M312.2,393.9l2.1,2.1c3.8-3.9,4.7-9,2.4-13.7
			l-2.7,1.4C315.8,387.2,315.1,390.9,312.2,393.9L312.2,393.9z M378.1,413c-0.8,0.2-1.3,1-1.2,1.8c0,0,0,0,0,0
			c1.2,5.1,2.8,10.1,5,14.8c1.8,4,3.3,8.1,4.5,12.2c1.9,7.4,2.6,15.2,3.4,22.8c0.3,3.1,0.6,6.4,1,9.5c0.1,0.8,0.9,1.4,1.7,1.3
			s1.4-0.9,1.3-1.7c-0.4-3.1-0.7-6.3-1-9.4c-0.8-7.7-1.5-15.6-3.5-23.2c-1.2-4.3-2.7-8.6-4.6-12.7c-2.1-4.6-3.7-9.3-4.9-14.2
			C379.7,413.3,378.9,412.8,378.1,413C378.1,413,378.1,413,378.1,413L378.1,413z M366,548.7c0-0.8-0.7-1.5-1.5-1.5s-1.5,0.7-1.5,1.5
			c-0.2,1.5-1.3,2.6-2.8,2.8c-0.8,0-1.5,0.7-1.5,1.5c0,0.8,0.7,1.5,1.5,1.5C363.4,554.4,365.8,551.9,366,548.7z M397.6,429.6
			c-1.9-2-3.2-4.4-3.9-7l-2.9,1c0.8,3.1,2.4,5.9,4.6,8.2L397.6,429.6z M348.9,552.6c-2.8-0.7-5.7-1.2-8.4-1.7
			c-5.6-1-11-1.9-15.8-4.7c-0.7-0.4-1.6-0.2-2,0.6s-0.2,1.7,0.6,2.1l0,0c5.3,3,11.1,4.1,16.8,5.1c2.7,0.5,5.5,0.9,8.2,1.6
			c0.8,0.2,1.6-0.3,1.8-1.1C350.2,553.7,349.7,552.9,348.9,552.6L348.9,552.6L348.9,552.6z M355.6,371.8c-0.5,1.7-0.9,3.4-1.1,5.1
			c-0.2,1.6-0.5,3.1-1,4.6l2.9,1c0.5-1.7,0.9-3.4,1.1-5.1c0.2-1.6,0.5-3.1,1-4.6L355.6,371.8z M364.1,369.2l3-0.4
			c-0.9-8.8-2.4-17.5-4.3-26.2l-2.9,0.7C361.8,351.9,363.2,360.5,364.1,369.2L364.1,369.2z M367.7,385.2c0.6,0.6,1.6,0.5,2.1-0.1
			c0.5-0.6,0.5-1.5,0-2.1c-1.1-1.6-1.6-3.5-1.7-5.4c0-0.8-0.7-1.5-1.5-1.5s-1.5,0.7-1.5,1.5C365.2,380,366.3,383.7,367.7,385.2
			L367.7,385.2z M354.1,341.5c-0.8-0.1-1.6,0.5-1.7,1.3c0,0,0,0,0,0c-0.2,1.7-0.5,3.5-0.7,5.3c-2.2,16.3-4.8,34.9-11,49.3
			c-4.2,9.8-11.2,16.6-18.6,23.8c-4.7,4.3-9.1,9-13.1,14c-0.5,0.7-0.4,1.6,0.3,2.1c0.7,0.5,1.6,0.4,2.1-0.3l0,0
			c3.9-4.9,8.2-9.5,12.8-13.7c7.3-7.1,14.8-14.4,19.3-24.7c6.4-14.8,9-33.6,11.2-50.1c0.2-1.8,0.5-3.5,0.7-5.2
			C355.5,342.4,354.9,341.6,354.1,341.5C354.1,341.5,354.1,341.5,354.1,341.5z"/>
	</g>
</g>
</svg>
