<svg xmlns="http://www.w3.org/2000/svg" viewBox="0 0 70 70"><defs><style>.cls-1{fill:#eff3ed;}.cls-2{fill:#6ca21d;}</style></defs><title>logo-minified</title><g id="Layer_2" data-name="Layer 2"><g id="Layer_25" data-name="Layer 25"><polyline class="cls-1" points="70 0 0 0 0 70 70 70 70 0"/><path class="cls-2" d="M6.09,60.9V57.11c.68.73,3.47.34,5.07-.23,1.86-.66,3.66-1.38,5.42-2.19l1.17-.59-.28-.16c-3.59-2.6-8.34-12.64-3.63-21.24C22.33,17.22,51.55,18.13,63.91,9.1c-.27,17.53-5,32.06-15.21,41.67,8-10.08,13.44-21.85,12.51-37.87-9.83,6.66-37.34,5.8-44.68,20.44C13.7,39,15.35,48.53,19.87,52.44l.47.35,1.41-.71c1.27-.72,2.52-1.47,3.77-2.27l2-1.4-.24-2.1c-.55-6.3.09-12.31,4.11-17.72A23.45,23.45,0,0,0,30,45.39l.32,1.05,2.65-2c1.54-1.25,3.08-2.58,4.64-4L41.09,37,40.92,34c.05-3.46.88-7.15,3.34-9.36-2.52,3.44-2.27,8-1.69,10.25l.17.55,2-2c2.45-2.55,5-5.3,7.62-8.3A138.16,138.16,0,0,1,38.81,41.18l-.45.43.6.12c3.82.39,8.81-1.38,12.23-2.37a26.38,26.38,0,0,1-14.89,4.28v0l-.3.29C26.62,52.65,16.68,58.51,6.09,60.9Z"/></g></g></svg>