<svg xmlns="http://www.w3.org/2000/svg" viewBox="0 0 110 70"><defs><style>.cls-1{fill:#e5edd7;opacity:0.5;}.cls-2{fill:#6ca21d;}.cls-3{fill:#332e35;}</style></defs><title>logo-mobile</title><g id="Layer_2" data-name="Layer 2"><g id="Layer_25" data-name="Layer 25"><rect class="cls-1" width="110" height="70"/><path class="cls-2" d="M9.9,60.21V56.41c.68.73,3.47.34,5.07-.23,1.86-.66,3.66-1.38,5.42-2.19l1.17-.59-.28-.16C17.7,50.65,13,40.61,17.66,32c8.48-15.48,37.7-14.58,50.07-23.61-.27,17.53-5,32.06-15.21,41.67C60.51,40,66,28.23,65,12.21,55.21,18.86,27.69,18,20.35,32.65c-2.83,5.66-1.19,15.19,3.33,19.1l.47.35,1.41-.71c1.27-.72,2.52-1.47,3.77-2.27l2-1.4-.24-2.1c-.55-6.3.09-12.31,4.11-17.72A23.45,23.45,0,0,0,33.78,44.7l.32,1.05,2.65-2c1.54-1.25,3.08-2.58,4.64-4l3.52-3.36-.16-3.06c.05-3.46.88-7.15,3.34-9.36-2.52,3.44-2.27,8-1.69,10.25l.17.55,2-2c2.45-2.55,5-5.3,7.62-8.3A138.16,138.16,0,0,1,42.63,40.48l-.45.43.6.12c3.82.39,8.81-1.38,12.23-2.37a26.38,26.38,0,0,1-14.89,4.28v0l-.3.29C30.44,52,20.5,57.81,9.9,60.21Z"/><path class="cls-3" d="M41.09,62a7.35,7.35,0,0,1-5.41-1.93,5.78,5.78,0,0,1-1.54-4,5.89,5.89,0,0,1,1.61-4.12,7.47,7.47,0,0,1,5.6-2.07,12,12,0,0,1,2.33.27,7.12,7.12,0,0,0,1.13.16c0,.52.14,1.42.23,2.79a.39.39,0,0,1-.57,0,3.14,3.14,0,0,0-3.37-2.55c-3.08,0-4.58,2.23-4.58,5.21a6.21,6.21,0,0,0,1.26,4,4.46,4.46,0,0,0,3.39,1.49c.85,0,1.36-.14,1.56-.4a2.2,2.2,0,0,0,.16-1.1v-.63c0-1.25,0-1.36-1.19-1.54l-.63-.11a.37.37,0,0,1,0-.51H46a.32.32,0,0,1,0,.51l-.31.05c-.65.09-.75.24-.75,1.32v1c0,.61.09,1.07.42,1.23a.22.22,0,0,1,0,.27,3.81,3.81,0,0,0-.84.14A16.73,16.73,0,0,1,41.09,62Zm39,0h-.17a17.94,17.94,0,0,0-1.54-1.74l-2.67-2.84c-.62-.67-1.06-1.16-1.27-1.33,0,.37,0,.95,0,1.49V58.7c0,.75.05,1.33.06,1.54.06.69.18.93.72,1l.4,0a.33.33,0,0,1,0,.51h-3a.33.33,0,0,1,0-.51l.41-.05c.49-.09.6-.32.65-.95,0-.23.05-.81.05-1.56V56.33c0-1,0-1.2-.21-1.41a2.09,2.09,0,0,0-.81-.32l-.16-.06c-.12-.1-.09-.45.06-.51h2.88a5.91,5.91,0,0,0,1.36,1.79l1.59,1.7c.37.39,1.05,1.09,1.25,1.25a2.82,2.82,0,0,0,0-.67v-1c0-.76-.05-1.33-.07-1.55-.05-.68-.17-.91-.65-1l-.47-.06a.33.33,0,0,1,0-.51h3a.33.33,0,0,1,0,.51l-.4.06c-.5.09-.62.32-.65.95,0,.23-.05.8-.05,1.56v2.63c0,.35,0,1.77,0,2.05A.57.57,0,0,1,80.1,62Zm-25.41-.12a2.73,2.73,0,0,1-2.5-1.26,19.47,19.47,0,0,1-1.13-1.81.75.75,0,0,0-.75-.39c-.29,0-.33,0-.33.3v1.05c0,1.15.05,1.4.7,1.49l.35,0a.38.38,0,0,1,0,.51h-4a.38.38,0,0,1,0-.51l.34,0c.65-.09.7-.34.7-1.49V56.3c0-1.42-.06-1.49-.67-1.6l-.21,0c-.14-.05-.16-.45,0-.51.67-.05,1.89-.1,3.18-.1a6.49,6.49,0,0,1,2.65.39,1.93,1.93,0,0,1,1.21,1.81A1.9,1.9,0,0,1,52.93,58c-.14.07-.16.19,0,.42a9.81,9.81,0,0,0,2,2.57,1.64,1.64,0,0,0,.84.37.22.22,0,0,1,0,.33A2.75,2.75,0,0,1,54.69,61.84Zm38.81,0c-.52,0-1,0-1.42,0s-.79-.05-1.13-.05c-.67,0-1.46,0-2.23.05a.37.37,0,0,1,0-.51l.38-.05c.82-.11,1-.16,1-2V52.77c0-1.69,0-1.9-.84-2l-.37,0a.35.35,0,0,1,0-.49c1.26-.1,2.67-.16,4.39-.16a11.66,11.66,0,0,1,4.14.6,5.37,5.37,0,0,1,3.6,5.25A5.57,5.57,0,0,1,97.86,61,9.66,9.66,0,0,1,93.51,61.82Zm-37.58,0a.38.38,0,0,1,0-.51l.54-.05c.65-.07.7-.32.7-1.47V56.09c0-1.16-.05-1.41-.7-1.49l-.21,0a.37.37,0,0,1,0-.51c.25,0,.55,0,.86,0h3.83a14.74,14.74,0,0,0,1.63-.05,15.28,15.28,0,0,1,.19,1.82c-.06.14-.37.16-.49.06a4.79,4.79,0,0,0-.32-.74c-.22-.35-.67-.42-1.53-.42H59.5c-.44,0-.45.05-.45.9V57.1c0,.3,0,.3.4.32h.65c1,0,1.13,0,1.27-.54l.1-.42a.4.4,0,0,1,.49,0v2.6a.4.4,0,0,1-.49,0l-.1-.42c-.14-.52-.3-.55-1.27-.55h-.65c-.39,0-.4,0-.4.35V59.6a2.3,2.3,0,0,0,.19,1.19c.16.18.57.27,1.65.27,1.43,0,1.72-.37,2.13-1.3a.51.51,0,0,1,.49.07A12.38,12.38,0,0,1,63,61.77c-1.1,0-2,0-3-.05H58.12C57.42,61.72,56.75,61.74,55.92,61.77Zm8.26,0a.37.37,0,0,1,0-.51l.55-.05c.65-.07.7-.32.7-1.48V56.08c0-1.15-.05-1.4-.7-1.49l-.22,0a.38.38,0,0,1,0-.51c.24,0,.55,0,.86,0s.65,0,1,0h2.83c.77,0,1.48,0,1.63-.05.05.21.14,1,.19,1.82-.07.14-.37.16-.5.05a4.32,4.32,0,0,0-.32-.73c-.21-.35-.67-.42-1.53-.42h-.93c-.44,0-.45.05-.45.9V57.1c0,.3,0,.3.4.32h.65c1,0,1.12,0,1.26-.54l.11-.42a.39.39,0,0,1,.49,0v2.6a.39.39,0,0,1-.49,0l-.11-.42c-.14-.52-.3-.55-1.26-.55h-.65c-.39,0-.4,0-.4.35V59.6a2.28,2.28,0,0,0,.19,1.19c.16.18.56.27,1.65.27,1.42,0,1.72-.37,2.12-1.3a.51.51,0,0,1,.49.07,12.73,12.73,0,0,1-.52,1.94c-1.1,0-2,0-3-.05H66.38C65.68,61.72,65,61.73,64.19,61.77Zm18.37,0c-.14-.07-.16-.39,0-.51l.39-.05c.83-.11,1-.16,1-2V52.66c0-1.86-.16-1.91-1-2l-.39-.06c-.12-.12-.11-.44,0-.51h4.7a.38.38,0,0,1,0,.51l-.39.06c-.82.1-1,.16-1,2v6.53c0,1.87.16,1.92,1,2l.39.05a.38.38,0,0,1,0,.51Zm11.53-.65c3.12,0,4.53-2.22,4.53-5.18,0-3.48-2-5.16-4.95-5.16a3.13,3.13,0,0,0-1.42.24c-.12.11-.14.47-.14,1.3v6.18C92.1,60.21,92.22,61.12,94.09,61.12ZM50.86,57.84a1.34,1.34,0,0,0,1.41-1.47,1.54,1.54,0,0,0-1.61-1.65c-.6,0-.67,0-.67.42v2.25a.52.52,0,0,0,.1.39A2.28,2.28,0,0,0,50.86,57.84Z"/></g></g></svg>