<svg xmlns="http://www.w3.org/2000/svg" viewBox="0 0 186.6 109.78"><defs><style>.cls-1{fill:#6ca21d;}.cls-2{fill:#332e35;}</style></defs><title>logo-greenid</title><g id="Layer_2" data-name="Layer 2"><g id="Layer_25" data-name="Layer 25"><path class="cls-1" d="M0,106.11V98.34c1.4,1.5,7.11.69,10.39-.47,3.8-1.35,7.49-2.84,11.11-4.48l2.39-1.2-.57-.32C16,86.54,6.24,66,15.9,48.36,33.27,16.64,93.12,18.5,118.45,0c-.54,35.9-10.15,65.67-31.16,85.35,16.37-20.64,27.53-44.75,25.64-77.57C92.8,21.42,36.43,19.67,21.4,49.65,15.6,61.24,19,80.77,28.24,88.78l1,.72L32.1,88c2.6-1.47,5.17-3,7.73-4.66L44,80.52l-.48-4.3c-1.13-12.9.18-25.22,8.42-36.3-6.54,13.06-5.36,25.64-3,34.43l.65,2.16L55,72.32c3.16-2.56,6.32-5.29,9.51-8.2l7.21-6.89L71.35,51c.1-7.1,1.81-14.65,6.85-19.17-5.17,7-4.64,16.29-3.45,21l.35,1.12,4.05-4.14c5-5.21,10.2-10.86,15.6-17A283,283,0,0,1,67,65.71l-.92.88,1.22.25c7.82.81,18-2.82,25-4.86-8.56,5.61-20.2,9.27-30.5,8.77l0-.09-.62.6C42.06,89.22,21.7,101.2,0,106.11Z"/><path class="cls-2" d="M63.88,109.78c-4.32,0-8.37-1.14-11.08-4a11.83,11.83,0,0,1-3.16-8.23,12.07,12.07,0,0,1,3.3-8.45c2.56-2.7,6.48-4.25,11.47-4.25a24.65,24.65,0,0,1,4.77.54,14.59,14.59,0,0,0,2.31.32c0,1.07.28,2.91.47,5.72a.8.8,0,0,1-1.16.07c-.79-3.5-3.33-5.21-6.9-5.21-6.32,0-9.37,4.57-9.37,10.68a12.73,12.73,0,0,0,2.59,8.26,9.14,9.14,0,0,0,6.93,3.06c1.73,0,2.78-.28,3.2-.82a4.51,4.51,0,0,0,.32-2.26V104c0-2.56,0-2.78-2.44-3.16l-1.29-.22a.75.75,0,0,1,0-1h10a.65.65,0,0,1,.07,1l-.65.1c-1.32.18-1.54.5-1.54,2.7v2.09c0,1.25.18,2.19.87,2.51a.44.44,0,0,1,0,.54,7.8,7.8,0,0,0-1.72.28A34.26,34.26,0,0,1,63.88,109.78Zm79.92-.07a1.68,1.68,0,0,1-.35,0,36.74,36.74,0,0,0-3.16-3.57l-5.46-5.82c-1.26-1.37-2.16-2.38-2.6-2.73-.06.75-.06,1.94-.06,3.06V103c0,1.54.1,2.73.13,3.16.12,1.41.37,1.91,1.48,2l.82.07a.67.67,0,0,1-.07,1h-6.18a.68.68,0,0,1-.07-1l.84-.1c1-.18,1.22-.65,1.32-1.94,0-.47.1-1.66.1-3.2V98.18c0-2.06-.06-2.45-.43-2.88a4.29,4.29,0,0,0-1.66-.65l-.32-.12c-.25-.2-.18-.93.12-1h5.89a12.1,12.1,0,0,0,2.78,3.67l3.26,3.48c.76.79,2.16,2.23,2.56,2.56a5.78,5.78,0,0,0,.07-1.37v-2c0-1.56-.1-2.73-.15-3.17-.1-1.4-.35-1.87-1.32-2l-1-.12a.68.68,0,0,1,.06-1h6.18a.68.68,0,0,1,.07,1l-.82.12c-1,.18-1.26.65-1.34,1.94,0,.47-.1,1.65-.1,3.2v5.39c0,.72,0,3.63.07,4.2A1.18,1.18,0,0,1,143.79,109.71Zm-52-.25a5.59,5.59,0,0,1-5.11-2.59,39.88,39.88,0,0,1-2.31-3.7,1.53,1.53,0,0,0-1.54-.79c-.6,0-.68.07-.68.62v2.16c0,2.36.1,2.87,1.44,3.06l.72.07a.79.79,0,0,1,0,1H76.1a.77.77,0,0,1,0-1l.7-.07c1.34-.19,1.44-.69,1.44-3.06V98.1c0-2.91-.13-3.06-1.37-3.28l-.43-.07c-.29-.1-.33-.92.07-1,1.37-.1,3.88-.21,6.51-.21a13.3,13.3,0,0,1,5.42.79A4,4,0,0,1,90.91,98a3.89,3.89,0,0,1-2.76,3.63c-.29.15-.32.4,0,.87a20.1,20.1,0,0,0,4.07,5.27,3.36,3.36,0,0,0,1.72.76.46.46,0,0,1,0,.68A5.64,5.64,0,0,1,91.74,109.46Zm79.51,0c-1.07,0-2-.07-2.91-.1s-1.62-.1-2.3-.1c-1.37,0-3,0-4.57.1a.76.76,0,0,1-.06-1l.78-.1c1.69-.22,2-.32,2-4.14V90.88c0-3.45,0-3.89-1.72-4.1l-.75-.07a.72.72,0,0,1,0-1c2.59-.21,5.46-.32,9-.32a23.88,23.88,0,0,1,8.48,1.22,11,11,0,0,1,7.37,10.75,11.41,11.41,0,0,1-6.43,10.36A19.8,19.8,0,0,1,171.25,109.42Zm-77-.1a.78.78,0,0,1,0-1l1.12-.1c1.34-.15,1.44-.65,1.44-3V97.68c0-2.38-.1-2.88-1.44-3.06l-.43-.08a.76.76,0,0,1,0-1c.51,0,1.12.07,1.76.07s1.34,0,2.06,0h5.79a30.2,30.2,0,0,0,3.34-.1,31.3,31.3,0,0,1,.4,3.73c-.13.29-.75.32-1,.12a9.8,9.8,0,0,0-.65-1.51c-.44-.72-1.37-.87-3.13-.87H101.6c-.9,0-.93.1-.93,1.84v2.94c0,.62,0,.62.82.66h1.32c2,0,2.31,0,2.6-1.12l.21-.87a.82.82,0,0,1,1,.07v5.32a.82.82,0,0,1-1,.07l-.21-.87c-.29-1.07-.62-1.12-2.6-1.12H101.5c-.79,0-.82,0-.82.72v2.23a4.71,4.71,0,0,0,.38,2.44c.32.37,1.16.54,3.38.54,2.92,0,3.53-.75,4.36-2.66a1,1,0,0,1,1,.15,25.36,25.36,0,0,1-1.07,4c-2.26-.06-4.17-.06-6.11-.1H98.77C97.33,109.21,96,109.25,94.27,109.31Zm16.92,0a.77.77,0,0,1,0-1l1.12-.1c1.32-.15,1.42-.65,1.42-3V97.66c0-2.36-.1-2.86-1.42-3.06l-.44-.06a.78.78,0,0,1,0-1c.5,0,1.12.06,1.76.06s1.32,0,2,0h5.79c1.59,0,3,0,3.35-.1.1.43.28,2.12.4,3.73-.15.29-.76.32-1,.1a8.86,8.86,0,0,0-.65-1.5c-.43-.72-1.37-.87-3.13-.87h-1.91c-.9,0-.93.1-.93,1.84v2.94c0,.62,0,.62.82.65h1.34c2,0,2.29,0,2.58-1.1l.22-.87a.8.8,0,0,1,1,.07v5.32a.8.8,0,0,1-1,.07l-.22-.87c-.29-1.07-.62-1.12-2.58-1.12h-1.34c-.79,0-.82,0-.82.72v2.23a4.68,4.68,0,0,0,.4,2.44c.32.37,1.15.54,3.38.54,2.91,0,3.53-.75,4.35-2.66a1,1,0,0,1,1,.15,26.08,26.08,0,0,1-1.07,4c-2.26-.07-4.17-.07-6.11-.1h-3.85C114.25,109.21,112.88,109.24,111.19,109.31Zm37.64,0c-.29-.15-.32-.79-.07-1l.79-.1c1.69-.22,2-.32,2-4.14V90.66c0-3.8-.32-3.92-2-4.13l-.79-.12c-.25-.25-.22-.9.07-1h9.64a.78.78,0,0,1,.07,1l-.79.12c-1.69.21-2,.32-2,4.13V104c0,3.82.32,3.92,2,4.14l.79.1a.78.78,0,0,1-.07,1ZM172.44,108c6.39,0,9.27-4.54,9.27-10.61,0-7.13-4.13-10.58-10.14-10.58a6.4,6.4,0,0,0-2.91.5c-.25.22-.29,1-.29,2.66v12.66C168.37,106.11,168.62,108,172.44,108ZM83.9,101.26a2.75,2.75,0,0,0,2.88-3,3.15,3.15,0,0,0-3.31-3.38c-1.23,0-1.37,0-1.37.85v4.61a1.07,1.07,0,0,0,.21.79A4.67,4.67,0,0,0,83.9,101.26Z"/></g></g></svg>