<svg xmlns="http://www.w3.org/2000/svg" viewBox="0 0 895 267"><defs><style>.cls-1{fill:#6ca21d;}.cls-2{fill:#2c711e;}.cls-3{fill:#fff;}</style></defs><title>Vitaltree logo</title><g id="Layer_2" data-name="Layer 2"><g id="Layer_25" data-name="Layer 25"><polygon class="cls-1" points="0 0 70 202 484 202 511 202 441 0 0 0"/><polygon class="cls-2" points="432 0 502 202 866 202 895 267 895 202 895 0 432 0"/><path class="cls-3" d="M96.7,38.63h19.41l13.77,99.1h.81l13.84-99.1h19.34l-22.78,125.1H119.4Z"/><path class="cls-3" d="M183.44,38.63h19v125.1h-19Z"/><path class="cls-3" d="M242.87,53.57H222.73V38.63h59.18V53.57H261.84V163.73h-19Z"/><path class="cls-3" d="M316,38.63h21.83L361,163.73H341.78l-3.44-22.41H315.49l-3.3,22.41H292.93ZM336.14,127,327.35,64.7h-.81L317.68,127Z"/><path class="cls-3" d="M380.55,38.63h19V148.79h25.85v14.94H380.55Z"/><path class="cls-3" d="M535.13,53.57H515V38.63h59.18V53.57H554.1V163.73h-19Z"/><path class="cls-3" d="M600.49,38.63h20.58q3.52,0,7.73.29a44.12,44.12,0,0,1,8.42,1.43,33.73,33.73,0,0,1,8.13,3.41,23.89,23.89,0,0,1,7,6.23,31.13,31.13,0,0,1,4.87,9.92A49.81,49.81,0,0,1,659,74.37v3.15q0,14.28-4.1,23.25a25.78,25.78,0,0,1-12.08,12.93l20.07,50H642.82l-16.63-46.8h-7.1v46.8h-18.6Zm21.46,64.6a28,28,0,0,0,8.42-1.1,11.53,11.53,0,0,0,5.57-3.7A16.33,16.33,0,0,0,639,91.55,49.82,49.82,0,0,0,640,81V71.08a34.77,34.77,0,0,0-.88-8.35,13.05,13.05,0,0,0-3-5.79,12.5,12.5,0,0,0-5.53-3.37,28.86,28.86,0,0,0-8.64-1.1h-2.86v50.76Z"/><path class="cls-3" d="M690.75,38.63h46.36V53.57H709.71V91h21.17v14.94H709.71v42.85h28.13v14.94H690.75Z"/><path class="cls-3" d="M765,38.63H811.4V53.57H784V91h21.17v14.94H784v42.85h28.13v14.94H765Z"/></g></g></svg>